/* XPM */
static char *result[] = {
/* columns rows colors chars-per-pixel */
"64 64 185 2 ",
"   c #150F0C",
".  c #1E1712",
"X  c #261C16",
"o  c #30261E",
"O  c #3A2C23",
"+  c #793F1A",
"@  c #793F17",
"#  c #4C372D",
"$  c #7D421B",
"%  c #5C4639",
"&  c #554336",
"*  c #81461D",
"=  c #85491F",
"-  c #945F14",
";  c #8C5319",
":  c #A2691D",
">  c #A8721A",
",  c #854A22",
"<  c #894D21",
"1  c #8F5223",
"2  c #8A552F",
"3  c #925526",
"4  c #965926",
"5  c #965A2A",
"6  c #975929",
"7  c #855A3D",
"8  c #985F34",
"9  c #97633C",
"0  c #A56C20",
"q  c #A26739",
"w  c #A1673A",
"e  c #AA703F",
"r  c #8B6150",
"t  c #9C6E5C",
"y  c #AE6C49",
"u  c #AC7144",
"i  c #B47849",
"p  c #B97B55",
"a  c #D25D65",
"s  c #D76A6C",
"d  c #DB7371",
"f  c #DE7B76",
"g  c #E07C78",
"h  c #BE8818",
"j  c #D3A10F",
"k  c #E3B606",
"l  c #E9BA07",
"z  c #FACE01",
"x  c #F1C404",
"c  c #FFD400",
"v  c #FFD800",
"b  c #BE835E",
"n  c #9E8572",
"m  c #AF856B",
"M  c #AF8C71",
"N  c #C6875B",
"B  c #C78964",
"V  c #C99265",
"C  c #CF9A6F",
"Z  c #C69269",
"A  c #C99B7B",
"S  c #DC9A7B",
"D  c #C9A07E",
"F  c #DDA67A",
"G  c #E1AA7E",
"H  c #DE5D82",
"J  c #E75E86",
"K  c #E85F86",
"L  c #EA5F88",
"P  c #E45F88",
"I  c #DE6C8F",
"U  c #DE6E91",
"Y  c #DD7294",
"T  c #D57C9B",
"R  c #DB7A9A",
"E  c #D67090",
"W  c #E76087",
"Q  c #E96087",
"!  c #E76189",
"~  c #E9638B",
"^  c #E2698E",
"/  c #F0648E",
"(  c #EC738E",
")  c #E16D91",
"_  c #EA6790",
"`  c #F26992",
"'  c #E07195",
"]  c #BF9AAE",
"[  c #BE9EB1",
"{  c #ABA8A5",
"}  c #B3B0AE",
"|  c #A3AFB8",
" . c #BAACBA",
".. c #BAA7B7",
"X. c #B3B3BF",
"o. c #BEBAB6",
"O. c #D3819E",
"+. c #EB8A90",
"@. c #F18E94",
"#. c #F29196",
"$. c #D8A587",
"%. c #DEA590",
"&. c #E4AD82",
"*. c #E3A687",
"=. c #FDA78C",
"-. c #F6AE8F",
";. c #FFAB8E",
":. c #F4A686",
">. c #EAB58A",
",. c #F2BA8F",
"<. c #FFAE92",
"1. c #F4A598",
"2. c #E9B891",
"3. c #F6B493",
"4. c #FFB394",
"5. c #F3BD94",
"6. c #FFB996",
"7. c #FEBC99",
"8. c #FEB498",
"9. c #CC8CA6",
"0. c #CD85A0",
"q. c #D184A1",
"w. c #D48AA5",
"e. c #C594AA",
"r. c #C499AE",
"t. c #C894AA",
"y. c #D39DB2",
"u. c #D797AE",
"i. c #C5A7B8",
"p. c #D0AFBE",
"a. c #C6B1BE",
"s. c #F4C197",
"d. c #FEC39C",
"f. c #FFC99E",
"g. c #F6C39B",
"h. c #FFC4A3",
"j. c #FFCBA1",
"k. c #FACDAA",
"l. c #FEC5AD",
"z. c #FFD0A6",
"x. c #FACDB4",
"c. c #F6D4B8",
"v. c #ABB6C1",
"b. c #ADB9C3",
"n. c #B1BCC6",
"m. c #B4BEC9",
"M. c #C6BAC6",
"N. c #D0BFCB",
"B. c #B5C1CA",
"V. c #BAC4CC",
"C. c #BDC9CF",
"Z. c #BDC8D1",
"A. c #B9C7D0",
"S. c #C7C7CB",
"D. c #C4CDD4",
"F. c #CACED6",
"G. c #D4CED6",
"H. c #C9D1D7",
"J. c #CCD4DA",
"K. c #D3D5DC",
"L. c #D2D9DE",
"P. c #DDDEDE",
"I. c #EFD6C2",
"U. c #F7DCC7",
"Y. c #FEDFC6",
"T. c #F3DFD0",
"R. c #E3DCD7",
"E. c #D6DDE1",
"W. c #D9DFE3",
"Q. c #DDE2E6",
"!. c #DFE4E8",
"~. c #E4E3E4",
"^. c #E2E6E9",
"/. c #E5E9EC",
"(. c #E9ECEE",
"). c #EAE6E3",
"_. c #F2E7E0",
"`. c #EBEEF0",
"'. c #EEF1F2",
"]. c #F3F5F6",
"[. c #F5F7F8",
"{. c #F7F8F9",
"}. c #FEFEFE",
"|. c #FEF9F4",
" X c None",
/* pixels */
" X X X X X X X X X X X X X X X X X X X X X X X X X X X X X X X X X X X X X X X X X X X X X X X X X X X X X X X X X X X X X X X X",
" X X X X X X X X X X X X X X X X X X X X X X X X X X X X X X Xc c  X X X X X X X X X X X X X X X X X X X X X X X X X X X X X X X",
" X X X X X X X X X X X X X X X X X X X X X X X X X X X X X Xc c v  X X X X Xc c  X X X X X X X X X X X X X X X X X X X X X X X X",
" X X X X X X X X X X X X X X X X X X X X X X Xv c  X X X X X X X X X X X X Xv v  X X X X X X X X X X X X X X X X X X X X X X X X",
" X X X X X X X X X X X X X X X X X X X X X X X Xc  X X X X X Xc c  X X X X X X X X X X X X X X X X X X X X X X X X X X X X X X X",
" X X X X X X X X X X X X X X X X X X X X X X X Xc  X X X Xz c c c c  X Xc c c  X X X X X X X X X X X X X X X X X X X X X X X X X",
" X X X X X X X X X X X X X X X X X X X X X X X Xc c c  Xc c c c c c c c c c c c  X X X X X X X X X X X X X X X X X X X X X X X X",
" X X X X X X X X X X X X X X X X X X X X X X Xc c c c z l l k k k k k x z c c c  X X X X X X X X X X X X X X X X X X X X X X X X",
" X X X X X X X X X X X X X X X X X X X X X X Xc x h > 0 - 3 4 * $ * * ; - > j c  X X X X X X X X X X X X X X X X X X X X X X X X",
" X X X X X X X X X X X X X X X X X X X X X X- > < 5 4 3 3 3 3 $ * $ * $ $ 3 3 0 >  X X X X X X X X X X X X X X X X X X X X X X X",
" X X X X X X X X X X X X X X X X X X X X X$ $ $ < 3 3 3 5 4 6 = * * * * < ; 3 4 = $  X X X X X X X X X X X X X X X X X X X X X X",
" X X X X X X X X X X X X X X X X X X X X$ $ $ $ , 3 4 4 3 3 4 * $ $ $ $ < 4 1 1 , $ $  X X X X X X X X X X X X X X X X X X X X X",
" X X X X X X X X X X X X X X X X X X X$ @ $ $ $ p u 3 3 3 6 6 * * * $ $ 1 6 4 4 = $ * $ =  X X X X X X X X X X X X X X X X X X X",
" X X X X X X X X X X X X X X X X X X X* + $ , B s.s.V 9 F f.F 9 u >.5.Z w V >.b * $ * $ <  X X X X X X X X X X X X X X X X X X X",
" X X X X X X X X X X X X X X X X X X1 , $ + w d.f.,.>.C V >.f.d.j.f.>.C N >.,.j.&.9 $ $ <  X X X X X X X X X X X X X X X X X X X",
" X X X X X X X X X X X X X X X X X X1 $ $ $ 5.f.d.G G &.G s.f.f.j.j.,.G G F G f.f.d.$ $ 1 3  X X X X X X X X X X X X X X X X X X",
" X X X X X X X X X X X X X X X X X X6 = $ 3 7.7.d.d.A $.f.f.j.f.j.f.s.A 5.f.d.d.7.d.b $ 3 6  X X X X X X X X X X X X X X X X X X",
" X X X X X X X X X X X X X X X X X Xu 3 * -.6.6.7.7..   O m f.f.j.j.D o X o 5.6.6.6.5.= w u  X X X X X X X X X X X X X X X X X X",
" X X X X X X X X X X X X X X X X X7.7.6.<.8.8.4.4.#   m % & 2.f.f.>.& % C X # 4.<.4.4.-.8.7.d. X X X X X X X X X X X X X X X X X",
" X X X X X X X X X X X X X X X Xd.7.8.4.<.<.<.<.;.r S 6.&.A g.f.j.5.M $.6.*.t <.<.;.<.<.<.<.6.7. X X X X X X X X X X X X X X X X",
" X X X X X X X X X X X X X X X X7.6.8.<.8.<.<.;.;.;.<.6.7.d.f.f.j.j.d.7.6.<.<.<.4.<.;.;.<.;.8.d. X X X X X X X X X X X X X X X X",
" X X X X X X X X X X X X X X X X X8.-.B y ;.<.<.;.;.;.4.7.7.j.d j.j.d.h.6.8.;.;.;.;.=.p N :.S  X X X X X X X X X X X X X X X X X",
" X X X X X X X X X X X X X X X X X5 3 , + =.<.=.;.<.4.6.7.d.d.j.j.j.d.j.7.8.8.<.<.<.<.= 3 1 3  X X X X X X X X X X X X X X X X X",
" X X X X X X X X X X X X X X X X X4 3 2 7 %.<.<.;.4.6.d.7.3.d.j.j.7.3.d.7.6.4.<.4.<.%.7 9 5 3 4  X X X X X X X X X X X X X X X X",
" X X X X X X X X X X X X X X X X X{ } F./.(.h.8.4.6.7.d.f.s s d.d.d d d.d.7.7.6.8.l.(.(.P.o.{ n  X X X X X X X X X X X X X X X X",
" X X X X X X X X X X X X X X XZ.J.}.|.].].'.~.x.d.d.d.d.f.f.g a a f j.j.d.d.d.d.x.)./.^./.[.}.^.D. X X X X X X X X X X X X X X X",
" X X X X X X X X X X X X X Xv.Q.}.{.[.{.}.}.}.}._.k.j.j.j.f.f.f.j.j.j.j.f.j.k.R.Q.^.].}.}.}.}.}.].v. X X X X X X X X X X X X X X",
" X X X X X X X X X X X X X Xv.E.}.].{.}.}.}.{.(.`.[.|.I.U.Y.c.k.j.k.c.T.T.W.^.[.}.[.].].}.{.].^.Q.n. X X X X X X X X X X X X X X",
" X X X X X X X X X X X X X Xv.E.}.Q.^.^.{.}.}.}.}.}.}.^.}.}.(.Q.}.].Q.(.}.}.^.W.].}.}.}.}.`.Q.Q.Q.C. X X X X X X X X X X X X X X",
" X X X X X X X X X X X X X Xn.J.(.`.Q.!.{.[.(.[.{.'.}.}.{.{.}.}.}.}.[.[.}.[.}.{.(.{.{.(.`.`.Q.Q./.n. X X X X X X X X X X X X X X",
" X X X X X X X X X X X X X X Xb.'.[.Q.!.{.Q.{.].'.`.'.{./.`.{.^.Q.|./.].].^.`.].Q.[.`.]./.].[.^.b. X X X X X X X X X X X X X X X",
" X X X X X X X X X X X X X X X X XD.!.(.].^.{.(.'.{.Q.].[.'.[.^.!.].(.(.^.}.^.].].(.Q.}.`./.H.V. X X X X X X X X X X X X X X X X",
" X X X X X X X X X X X X X X X X X X9...a.G./.E.!.'.!.^.}.[./.].'.`.[.`.^.{.W.^.`.E.K.S.i.r.I  X X X X X X X X X X X X X X X X X",
" X X X X X X X X X X X X X X XW K ~ ~ ! ! ^ U U Y 9.i.n.V.V.B.V.V.B.V.V.M.a.y.R ' U U ! ~ ~ ~ L ~ K  X X X X X X X X X X X X X X",
" X X X X X X X X X X X X~ ~ ~ K K ~ ~ ! J ! ~ J Q J ! R L.}.}.}./.}.}.H.' ~ ~ ! _ _ ~ ~ ~ L ~ ~ ~ ~ ~ ~  X X X X X X X X X X X X",
" X X X X X X X X X~ L L ~ ~ ~ ~ K ~ ~ ~ ~ ~ ~  X~ J J ~ 9.Q.}.}.!.}.].M.) ~ _ _ ~  X X~ ~ ~ ~ ~ ~ ~ J ~ _ ~ ~  X X X X X X X X X",
" X X X X X Xf.+.~ ~ ~ ~ ~ ~ ~ ~ ~ ~ ~ ~ ~  X X XJ J J Q O.L.{.[./.}.}.E.R ~ L ~  X X X X~ ~ ~ ~ ~ ~ ~ ~ ~ ~ ~ ~ #.j.j. X X X X X",
" X X X Xz.f.f.j.#.~ ! ~ ~ ! ~ ~ ~ ! K L  X X X X~ J ~ ~ u.(.}.`.}.}.}.W.w.~ ~ H  X X X X X X~ ~ ~ ~ K ~ ~ ~ ! @.j.j.j.j.z. X X X",
" X X X X X X Xf.h.( ~ J J J ~ K J ~  X X X X X X XQ ~ ~ 0.J.{.{.`.}.].S.) ~ J  X X X X X X X X~ ~ ~ ~ ! ~ _ ( 7.g. X X X X X X X",
" X X X X X X X Xf.f.K J ~ ~ L K  X X X X X X X X X~ ~ Y H.}.}./.'.}.}.J.) ~ ~  X X X X X X X X X/ ! ~ ~ _ ~ 1.j.j. X X X X X X X",
" X X X X X X X X X X X~ ~ ~  X X X X X X X X X X X~ J Y H.}.}.^.}.}.}.H.U ~ ~  X X X X X X X X X X X~ ~ ~  X X X X X X X X X X X",
" X X X X X X X X X X X X X X X X X X X X X X X X X! ~ O.H.}.}.'.'.}.{.F.R ~ ~  X X X X X X X X X X X X X X X X X X X X X X X X X",
" X X X X X X X X X X X X X X X X X X X X X X X X/ Q ~ m.}.}.}./.{.}.}.}.V._ ~ ~  X X X X X X X X X X X X X X X X X X X X X X X X",
" X X X X X X X X X X X X X X X X X X X X X X~ ~ ~ ~ J n.[.}.}.(.[.}.}.}.V.~ ~ ~ ~ !  X X X X X X X X X X X X X X X X X X X X X X",
" X X X X X X X X X X X X X X X X X X X X X~ ~ ~ ~ ~ ~ R H.}.}.}.^.}.}.J.E ~ ~ ~ Q K L ~  X X X X X X X X X X X X X X X X X X X X",
" X X X X X X X X X X X X X X X X X X X X~ ~ K ~ ~ ~ ~ V.}.}.}.{.J.}.}.}.V.~ ! ~ K J ! ! P  X X X X X X X X X X X X X X X X X X X",
" X X X X X X X X X X X X X X X X X X_ ~ ~ ! ! L ~ ~ ~ Z.}.}.}.J.B.}.}.}.Z.! ~ ~ ~ ~ K ! ~ ~  X X X X X X X X X X X X X X X X X X",
" X X X X X X X X X X X X X X X X X` ~ ~ ~ ~ J ~ ~ ~ T D.}.}.}.B.D.[.}.}.Q.[ ! ~ ! ~ ~ K J ~ ~  X X X X X X X X X X X X X X X X X",
" X X X X X X X X X X X X X X X X X~ ~ ~ _ ~ ~ ! ! ! v.}.}.}.(.E./.Q.}.}.}.v.~ L J K ~ ~ Q ~ ~ ~  X X X X X X X X X X X X X X X X",
" X X X X X X X X X X X X X X X` ~ ~ ~ ~ ~ _ _ ~ ! ! ..].}.}.D.[.[.D.}.}.}.v.K ~ ~ ~ ~ ~ ~ ~ Q ~ ~  X X X X X X X X X X X X X X X",
" X X X X X X X X X X X X X X X~ ~ _ ~ _ ~ ! ~ ~ ~ ^ X.^.}.[.J.[.{.L.{.}.}.F.R ~ ~ ! ~ ! K ~ ~ ~ ~ ~  X X X X X X X X X X X X X X",
" X X X X X X X X X X X X X X~ ~ _ _ ~ ~ ! ~ _ ~ ~ e.].}.}.L.!.!.^./.E.}.}.}. ._ ~ ~ ~ ~ ~ ~ ! ~ K ~ `  X X X X X X X X X X X X X",
" X X X X X X X X X X X X X~ ~ ~ ~ _ ~ ~ ~ ~ ~ ~ ~ r.L.}.}.L.!.}.{.^.L.{.}.{. .' ~ ~ ~ ~ ~ ~ ~ ~ ~ ~ _  X X X X X X X X X X X X X",
" X X X X X X X X X X X X` ~ ~ ~ P J K P ! ! ~ K t.(.}.}.`.E.[.}.}.}.!.`.}.}.`.e.~ ! ~ ~ _ ~ _ ~ ~ ~ ~ ~  X X X X X X X X X X X X",
" X X X X X X X X X X X X~ ~ ~ ~ K ~ K K ! K K ! e.`.}.}.^.E.'.}.[.].Q.^.}.}.`.t.K J ! ~ ~ ~ ~ ~ _ ~ Q J ~  X X X X X X X X X X X",
" X X X X X X X X X X X~ J J K ! K P ~ K ~ K P K t.~.}.}.Q.L.`./.`.`.Q.L.{.}.`.] ^ ~ ! W ! ! K ~ ~ ~ ~ ! ~  X X X X X X X X X X X",
" X X X X X X X X X XK L ~ ~ ~ ~ ~ ! ~ ~ ~ ~ P T K.{.}.[.J.{.}.}.}.}.}.H.].}.}.W.i.! ! J Q ! ~ ~ ! ~ ~ ~ K Q  X X X X X X X X X X",
" X X X X X X X X X X~ L ~ ! ! L J ~ ~ K ~ ~ ! T ~.}.}.].H.[.}.}.[.}.}.`.Z.}.}.].p.^ ! ! ~ ~ K ~ ~ ! ~ ! J J  X X X X X X X X X X",
" X X X X X X X X X X~ ~ ~ ~ J L ! J ~ ~ ~ ~ Y S.'.}.}.C.W.'./.^.[./.(./.B.}.}.{.F.Y ~ ~ ~ ! W K J ~ J ! ~ ~ ~  X X X X X X X X X",
" X X X X X X X X X X9.q.9.r.q.~ ! 9.R ~ ! ! w.Q.}.}.{.V.}.}.}.}.}.}.}.}.[.V.}.}.'.y._ ~ ~ U 9.' J R e.t.q.q. X X X X X X X X X X",
" X X X X X X X X X Xb.m.b.n.b.b.v.b.b.v.e. .b.J.}.{.B.b.E.}.`.b.D.{.].D.D.Q.J.}.J.m. .r...v.v.b.| b.b.b.b.b. X X X X X X X X X X",
" X X X X X X X X X X X X X X X X X X X X X X XB.B.|  Xb.v.b.m.b.b.B.B.m.n. XA.A.B. X X X X X X X X X X X X X X X X X X X X X X X",
" X X X X X X X X X X X X X X X X X X X X X X X X X X X X X X X X X X X X X X X X X X X X X X X X X X X X X X X X X X X X X X X X",
" X X X X X X X X X X X X X X X X X X X X X X X X X X X X X X X X X X X X X X X X X X X X X X X X X X X X X X X X X X X X X X X X"
};
