/* XPM */
static char *result[] = {
/* columns rows colors chars-per-pixel */
"64 64 225 2 ",
"   c #71553F",
".  c #73543E",
"X  c #72543F",
"o  c #73553F",
"O  c #735741",
"+  c #745640",
"@  c #745741",
"#  c #755741",
"$  c #765740",
"%  c #775741",
"&  c #765841",
"*  c #775841",
"=  c #765842",
"-  c #775842",
";  c #765942",
":  c #765943",
">  c #775943",
",  c #765A44",
"<  c #775A44",
"1  c #785841",
"2  c #785842",
"3  c #785942",
"4  c #795942",
"5  c #795943",
"6  c #795A42",
"7  c #795A43",
"8  c #795B43",
"9  c #7A5A43",
"0  c #7A5B43",
"q  c #785A44",
"w  c #795A44",
"e  c #795B45",
"r  c #7A5A44",
"t  c #7A5B44",
"y  c #7B5B44",
"u  c #7A5B45",
"i  c #7B5B45",
"p  c #7B5C44",
"a  c #7B5C45",
"s  c #7B5D46",
"d  c #7C5C45",
"f  c #7C5D45",
"g  c #7D5D45",
"h  c #7D5C46",
"j  c #7C5D46",
"k  c #7D5D46",
"l  c #7C5D47",
"z  c #7D5D47",
"x  c #7D5E46",
"c  c #7D5E47",
"v  c #7E5E46",
"b  c #7E5E47",
"n  c #7E5F47",
"m  c #7F5F47",
"M  c #7D5E48",
"N  c #7E5E48",
"B  c #7E5F48",
"V  c #7F5F48",
"C  c #7F6048",
"Z  c #7F6049",
"A  c #806048",
"S  c #806049",
"D  c #806149",
"F  c #816149",
"G  c #80604A",
"H  c #80614A",
"J  c #81614A",
"K  c #82614A",
"L  c #81624A",
"P  c #82624A",
"I  c #82624B",
"U  c #82634B",
"Y  c #83634B",
"T  c #80614C",
"R  c #81644F",
"E  c #84644D",
"W  c #85654D",
"Q  c #826550",
"!  c #836651",
"~  c #866953",
"^  c #876B57",
"/  c #876D5B",
"(  c #886D58",
")  c #8A705E",
"_  c #8A705F",
"`  c #8C725F",
"'  c #8D725F",
"]  c #8E7664",
"[  c #8F7666",
"{  c #937C6B",
"}  c #947E6E",
"|  c #947E6F",
" . c #967E6F",
".. c #97806F",
"X. c #978376",
"o. c #998273",
"O. c #988274",
"+. c #9A8375",
"@. c #9B8678",
"#. c #9C8679",
"$. c #9C877A",
"%. c #9E8A7D",
"&. c #9F8B7F",
"*. c #A08B80",
"=. c #A18D80",
"-. c #A08D83",
";. c #A28E84",
":. c #A28F85",
">. c #A29086",
",. c #A39387",
"<. c #A49286",
"1. c #A6948A",
"2. c #A8978C",
"3. c #A9978C",
"4. c #A8978D",
"5. c #A8988F",
"6. c #AA998E",
"7. c #AA998F",
"8. c #AA9A92",
"9. c #AB9A92",
"0. c #AD9C93",
"q. c #AB9C94",
"w. c #AD9D94",
"e. c #AE9E97",
"r. c #B2A39C",
"t. c #B2A49D",
"y. c #B2A59D",
"u. c #B3A59E",
"i. c #B2A59F",
"p. c #B0A6A3",
"a. c #B0A8A4",
"s. c #B3A9A5",
"d. c #B3AAA7",
"f. c #B3ABA7",
"g. c #B5AAA7",
"h. c #B8ABA5",
"j. c #B4ABA8",
"k. c #B6ABA8",
"l. c #B4ACA8",
"z. c #B5ACA8",
"x. c #B5ACA9",
"c. c #B6ACA9",
"v. c #B7ACA9",
"b. c #B6ADA9",
"n. c #B7ADA9",
"m. c #B6ADAA",
"M. c #B7ADAA",
"N. c #B6AEAA",
"B. c #B7AEAA",
"V. c #B7AEAB",
"C. c #B7AFAB",
"Z. c #B7AFAC",
"A. c #B8ADAA",
"S. c #B8AEAA",
"D. c #B8AEAB",
"F. c #B9AEAB",
"G. c #B8AFAB",
"H. c #B9AFAB",
"J. c #B8AEAC",
"K. c #B8AFAC",
"L. c #B9AFAC",
"P. c #BAAFAC",
"I. c #BAAFAD",
"U. c #B9B0AC",
"Y. c #B8B0AD",
"T. c #B9B0AD",
"R. c #B9B1AD",
"E. c #BAB0AC",
"W. c #BBB1AC",
"Q. c #BAB0AD",
"!. c #BBB0AD",
"~. c #BAB1AD",
"^. c #BBB1AD",
"/. c #BBB2AD",
"(. c #BBB0AE",
"). c #BAB1AE",
"_. c #BBB1AE",
"`. c #BBB1AF",
"'. c #BBB2AE",
"]. c #BBB2AF",
"[. c #BCB1AE",
"{. c #BCB1AF",
"}. c #BCB2AE",
"|. c #BCB2AF",
" X c #BDB2AF",
".X c #BCB3AF",
"XX c #BDB3AF",
"oX c #BCB2B0",
"OX c #BDB2B0",
"+X c #BCB3B0",
"@X c #BDB3B0",
"#X c #BDB3B1",
"$X c #BEB3B0",
"%X c #BEB3B1",
"&X c #BDB4B0",
"*X c #BCB4B1",
"=X c #BDB4B1",
"-X c #BEB4B0",
";X c #BEB4B1",
":X c #BFB4B1",
">X c #BEB5B1",
",X c #BFB5B1",
"<X c #BEB4B2",
"1X c #BEB5B2",
"2X c #BFB5B2",
"3X c #BFB5B3",
"4X c #BFB6B2",
"5X c #BEB6B3",
"6X c #BFB6B3",
"7X c #BFB7B3",
"8X c #BFB6B4",
"9X c #C0B5B2",
"0X c #C0B6B3",
"qX c #C0B7B3",
"wX c #C0B6B4",
"eX c #C0B7B4",
"rX c #C1B7B4",
"tX c #C0B7B5",
"yX c #C0B8B4",
"uX c #C0B8B5",
"iX c #C1B8B5",
"pX c #C2B8B5",
"aX c #C1B8B6",
"sX c #C2B9B6",
"dX c None",
/* pixels */
"dXdXdXdXdXdXdXdXdXdXdXdXdXdXdXdXdXdXdXdXdXdXdXdXdXdXdXdXdXdXdXdXdXdXdXdXdXdXdXdXdXdXdXdXdXdXdXdXdXdXdXdXdXdXdXdXdXdXdXdXdXdXdXdX",
"dXdXdXdXdXdXdXdXdXdXdXdXdXdXdXdXdXdXdXdXdXdXdXdXdXdXdXdXdXdXdXdXdXdXdXdXdXdXdXdXdXdXdXdXdXdXdXdXdXdXdXdXdXdXdXdXdXdXdXdXdXdXdXdX",
"dXdXdX;X;X;X2X6X&X4X0X4X:X=X0X@X&X&X|.eX@X2X2X&XQ.6X2X-X_._.@X4X&X2X|.;X@X@X@X;XrXeX1XeX0X6XoX2X|._.Q.@X0XpX|.;XeX2XP.E.}.dXdXdX",
"dXdX;X|.]..X|.2X@X@X1XeX1X2X1Xm.;XeX6X;X;X1X&X+X2X;X@XQ._.D.1X2X@X@X].;X1X@X2XqXiXwX2X2X|.6X,X2X.X|..X$X+X@XK.6X4X6X|.1X@X|.dXdX",
"dXdX=X_.D.;X;X;X@X=X0XiX6X;X2XeX0X=X@X4X;X=X>X;XeXrXsX&X=X~..X=XeX@XR.D.2X|.|.pX=X1X-X1X=XQ.eX1X}.|.P.Q.|.|.+XiX2X;X;X+XqX|.dXdX",
"dXdX1X2X;X.X.X'._.;X&X2XrXsXeX|.;XeX;X2X4X2X1X2X}.2X6X;X@X.X_.Q.2X2X=X'.@X2X2X6XrX2X+X-X+Xx.6X2X&X_.F.|.@X;X@X@X;X;XeX4X0X6XdXdX",
"dXdX;X@XqXeX1XZ.|.2X;X6X6X6XeX2X|.;X@X1XiXeX&Xj.'.;X}.E._.;X_.;XeX@X@X}.1X;X;XeXqX|._.L.;X&X1X@X_.%X_.[.@X;X|. X|.|.;X).].2XdXdX",
"dXdXeX@X>X6X@X@X&X.X_.0X6X6XeX;X|.Q.|.6X0X1X;X6X6X|._.[.'.;X=X;X+X;XXX&X|.@X1X2X@X}.^.6X]._.>X|._.0X0X|.@XQ.XX.X;X2X@X=XeX=XdXdX",
"dXdX;X_.&X@X@X@X1X+X_.@X0XeX2XQ.|.|.|.@X@X@X+X2X@X@X=X@X1X_.eX|.;X1XXX|.=X@X;X@X>XXX;X|.^._.=X|.|.|.@X|.|.L.;X=XoX;X1X@X|.0XdXdX",
"dXdX XP.^.+X+X_.@X@Xv._.!.;XQ.1X@X}._.|.;X^.;X0XeX;X2X>X|.6X.X}.@X|.;X1X'.'.;X|.@XrX_.XX;XQ.+X_.}.a.Q.+X].P.&X.X|.;X6X].0X6XdXdX",
"dXdX#X^._.@X@X;X=X6X#X@X|.|.2X0XQ.A.&XQ._.[.@X>X2X;X=X6X@X@X2X;X>X@X=X@XP.^.P.@XQ.@X'._._._.'.|.|.Q.|.=X>X'.|.;X@X2X|..X;X_.dXdX",
"dXdX|.@X_._.;XE.@X@X.X$X'. XQ.Q.c.V..X_.@X@X|.@X&X;X&X1XP.k.@X1X=X_.XX@X.X_.;X|.F.l._.;X;X|. X;X@X=X+XrX@X;XQ.;X_.>X2X@X;X-XdXdX",
"dXdX;X=X@X_.+X2X@X!.6X@X6X}._.@X}.;X@X&X2X;X]._.6X2X|.].M.].;XQ.'.Q.@X>X6X;XXX^._.S.|.=X;X|.|.|.D.6X&X2X2X2Xd.=X}.;X@X&X}.@XdXdX",
"dXdXQ.|.+XXX;X6X;X_.x.2X;X@X;X;X2X;X1X>X0X;XG.@X;X.XQ.@X^.;X|.M.Q.Q.|.@X2X_.&X2X!.;X@X;XsX;X|.^.L.^._.^.2X&X=X|.;X|.|.@X.X|.dXdX",
"dXdXG.@X|.1X6XiX=X=X2X=X0XL.@X4XeX;X1X6XF.P.+X!.|.Q.n.=X@X@XP.|.[.|.~.;X|.}.2X|._.!._.2X2XQ.}._.&X2X@X|.!.^.;X4X6X;X@X^.@X_.dXdX",
"dXdXQ.Q.XX2X1X1X;X6X2X=X6X;X@X1X0X;X=X>X(.@X&X;X|.^.'.@X|.@X@X=X=X;X@X.X2X+XXX;X^.|.>X@X2X|.1X6X;X;X1X+X@X_.;X@XeX'.6X@X'.;XdXdX",
"dXdX|.Q._.1X).@X;X;X;X6X2XyX'.0X1XpX2X_.;X=X^.Q.!._.|.@XS.|.;XiX@X;X'.2X0X6XL.;XeX0X0X;X1X_.!.6X;XH.1X1X0X'.2X@X6X6X4XV.]._.dXdX",
"dXdX&X!..XU.x.@X6X.X;X&X1X6XpXpXqX6X|.=X}._.|.;X;X@X@X=X;X@X_.|.'.2X0X;X@X;X@X@X;X;XB.OXH.}.|.|.4Xm.@XeX6X|.@XoX|.6X2X|.;X|.dXdX",
"dXdX@X_.~..X.X@X;X-X|.;X1X2XeX0X1X&X@X|.@X[.2X;X+X|.@X@X2X>X.X-X@X.X@X0X~.0X@X@X_.;X@XS. X_.@X=XQ.b._.0X6X@X_._.@X;XeX|.@X;XdXdX",
"dXdXXX_.H.Q.oX}._._.eX=X;X1X2X;X_.@X@X=X>X2XrX^.0X;X=X@X@X2X@XeX7XQ.T.0X6X1X=X2X'.6X2X2X@XE.&X|.L.L.|.2X=X;X;X|.eXrX2X'._.@XdXdX",
"dXdX2X@X@X;X2X2X+X@X=X1X1X!.x.L.|.@X@X;XeX@X@X!.6X@XQ.'.1X1X!. X}.;X6X@X6X|.;X;X@X2X2X@XQ.@X.X}.Q.;X|.;X;X!.|.@X2X2X1X|.@X2XdXdX",
"dXdXXX0X@X;XQ.[.wX;XQ.|.;X+XC.|.|.2X;X&X].L.;X_.}.@Xn.@X1X0XD.Q.!.L.1X|.6X2X@XP.@X|.@X2XT.|.'.;X;X6X,X;X&Xz.iX;XwXeX-X X0X1XdXdX",
"dXdXE.|.@X+XF.@X;X=X|.@X;X;X@X2X;X=X;X1X2X|.2X@X2X+XM.!..X6X@X;X_.Q.;X_.;X6X;XE.}.{.|.@X_.6X|.6X=X=X2X=X;X|.1XXX4X@X6X|.;X@XdXdX",
"dXdX+X~.;Xf.*X;X;X@X2X;X^.1X@X6X;X|.6X_.;X|._.6XuX_.&X6X6X.X|.-X2XE.2X;XXX&X@Xn.~._.;X@X&X'.0XrX@X^.|.6XQ.0X2X=X1X6XiX}.}.;XdXdX",
"dXdX_.6X@X@X;X2X@X6X-X2X;X>X;X0X;X@X).[.6XQ.6X2X;X&XiX|.|.@X|.$XiX1X@X;X1XS..X|.=X+X;X}.@X+X+X2X6XT.@X@X=X=X=X@X.X;X;X|.|.;XdXdX",
"dXdX2X&X;X2X@X+X|.@X1X+X|.@X.X0X.X|._..X2X|.2X2X<X^.0X0X!.|.|. X0X).).2X0XXX@X=XV.'.6X2X]._.|.}.H.1X'.;X&X=X@X@XQ.@X|.|.+X@XdXdX",
"dXdX0X2X=X4X|.].@X@XD._.L.E.!.6X|.}.L.A.0X6X1X|.|.0X@X@XQ._.2X#XuX6X6X9X0X=X}.^.K.=X;X+X&X4X2X}.`.!.j.;X2X;X%X|.|.@X@X|.Q.F.dXdX",
"dXdX=X|.A._.;X;X;X@XQ.|._.;X-X;X=X>X_._.=X&X;X&X;XeX6XeX|.2X@XeX1X6X=X2X1XD.+XeX6X6X&X_.1X.X'.2X|.0X2X1X&XeX2X.X&X@Xz._.1X_.dXdX",
"dXdX|.Q.Q.@X2X_.|.6X2X@X6X;X;X1Xv.M.E.^.'.1X:X@X6X&X2XpXeX;X}.0X3X6X2X|.eX@X=XOX6X1X&X>X;X1X=X1X=XiX>X;X}.;X;X@X>X!.P.;X2X|.dXdX",
"dXdX|.|.|..Xg.P.[._.;X2X@X;X+X0X'._._.Q.'.@X;X@X1X&X;X_.<XL.@X6XeX6X0X0X>XtX_. XH.XX=X@X;X0X;XeX=X6X2X;X|.=X0X@XQ.+X].A.!.|.dXdX",
"dXdX~.1X+XP.L.XXoXL.;X@X|.@X>X=XQ.@X0X@X|.XXT.sX2X&XD.;XsXJ.2XrXiX&XQ.1X>X2X!.S.Q.F.2XeX@X'.6X2X]./.;X@X1X6X@X6X).|.}._.!.;XdXdX",
"dXdX|.;XK. X;X;X=X@X2X}.;X[.$X0X@XeX=XL._.|.&X}.@X2X@X@X0X6X;X6XiX2X2XrX2X|.2XeX@X^.2X0X6X0X1XeX2X;XXX}.;X1XXX|..XH._.1X).eXdXdX",
"dXdX@X2XL.@X;X@X1X0X|.$X6X|._.@X+X1X|.H.~._.Q.L.|.;X0X-X;X@X0X0X2X2X6X6X|.=X1X4X6X&X2X}.;X6X0XeX0X;X@X).1X~.XX;X@Xs.|.;X>X6XdXdX",
"dXdX6XqX6X[._.;X4XiX4X2X!.|.L.&X6X=X)._.XX;X;X&X;X@X|.0X+X&X2X2XiXrXeX!.=X0X2X;XiX2X@X_.;X2Xm.eX6X2X@X;X;X@X|.&X^.].v.+X;X|.dXdX",
"dXdX6X0X=X;X'. X_.;XeX;X@X;X0XeX;X@XT.@XXX>X.X|.|.@X3X6X;X2X@X2X6X;X>X4X6XK.+X=X>XiX2X>X@X>XT.6XiX0X+X2X_.^.@X_.Q.;X|.|.}.4XdXdX",
"dXdX~.;X2X+XiXsXm.B.|.<XaX2X<X;X@X_.D.Q.F.'.E._.$X|.2X@X8X@Xf.@X,X;XQ.F.@X+XoX6XrX0X1X&X1X2X4XiX:XeXU.'..X_.L.T.6X2XeX}.;X=XdXdX",
"dXdX|.;X;X;X;X;X_.;X|.2X_.].&X[.L.|.;X2X[.&X_.@X=XQ.;X4X2X_.|.2Xv._.F.@X@X|.|.;X_.@X6XiX;X2X2X1X|.;X6X+X@X|.-XrX4X;X2X;X.XQ.dXdX",
"dXdX_.@X6X|._.@XL.Q.@X0X>X&X^.0X+X=XeX;XA.E.|.=X)._.|.;X2X.X_.@X'._.}.|.'.>X2XeX1X}.|.@X;X;X,X@X^.^._.&X.XW.;X2X0X|.&X|.;X4XdXdX",
"dXdXL._.@X+X1X_._._._.2X2X=X|. X@X@X4XqXQ.+X|.6X=X;XL.6X}.XX2X[.Q.|.Q.|._.|.|.|.@XXX1X5X1X&X6X=X1XU.Q.@XL.+X6X@X|.@X1XQ.S.L.dXdX",
"dXdX@X6X@X&X2X&X|.|.@X>X2X+X{.I.+X&XpX>X#X;X].;X_.@X|.0X-X@X|.2X^.>XXX_.;XL._.|.&X@X_.@XiX;X;X1X;Xc.Q.^..X=X2Xj.2X2XeX@X.X@XdXdX",
"dXdXXXV._.[.XX0X;X1X;X0X+XQ.2X@X@XeXiX@X|.@X_.4X@XQ.|.@XQ.^.&X|.+X;X>X&X6XE.Q.'.0X@X+X;XeX;X@X@XXXM.|._.Q.XX0XK.&X1XqX;X=X^.dXdX",
"dXdX4XM.L.|.Q.=X2X2X4XXX@X|.V.@X&XeX6X+X_._._.^.+X_.P.U.}._.@XrX;X0X2X|.E._.L.;X0X2X;X2X>X_.;X|._.L.+X|.|.;X@X2X;X2X0X1X=X;XdXdX",
"dXdX'.^.|.;X_.2X|.iX1X@X6X2Xj.Q.6X|.6XS.}.|.@X1XM.^._._.@X|.@X&X|.|._._.0X.X'.0X4X;X;X6X0X<X=X].L.M.@X|.n.iXeX@X0X=X;XQ.Y.1XdXdX",
"dXdX2X1X+X_.0XeXrX3XeX2XL.@X_.iX;X;X;X=X>X;X2X;XQ.@X_.@X}.m.K.n.[.|.@X~.T.|.@X4X;X|.@X;XrX6XeX.X@X|..X|.Q.eX&X@X1X&X|.@XU.1XdXdX",
"dXdXeX=X6X6X0X6X6X;X6X2X;XL.2X0X>X|.@X^.1X$X6X;X}.}.]._.Q._.+X@X_.{.|.Q.p.D.@X_.;X6X=X;X6X@XP.Q.|._._._.;X@XXX@X4X|.2X4X2X2XdXdX",
"dXdX;X^._.@X|.;X6X2X;X&XeX#XH.1X&X@XQ.|.eX$XiX@X@XXX_.|._.'.0X2X;X@X|.@X|.2X@XE.@X!.;X@X;X;XQ.|.L._.).V.6X6X'.4X@X|.1XrX2X0XdXdX",
"dXdX|.2XeX;X6X+X+X=X4X$XrX1X'._. X@X|.@X&X@XXX@X;X_.|.@X;X=X&X@XeXA.|.6X6X=X&X_.;X&X6X3X2X2X|.@X;X_._.L. X_.@X|.=X2X>X@X1X@XdXdX",
"dXdX>XiX;X;X_.=X2X;X3X6X@X1X-X@X>X_.@X.X6Xn.;X'._.@X_.L._.;X2XrXA.XXK._.6X&X.XF.4X2X.X|.|.@XN._.iX_.;XiX@XF.@X2X6XpX2X;X&X_.dXdX",
"dXdX1X;X2X>X;X1X0X6XiX@X@X1X|.@X.X|.N._.^.|.;X@X>X=X^.|.2X).>X4X=X^.0X;X1X6X~.|.[.eX@X_._.].>X@X;X1X@X;X|._.@X@X=X1X|._.'.z.dXdX",
"dXdXqX=XT.eX2XeX6X0XrX_.2X#X2X=X@X;X2X7X;X=XeX2X1X.X|.;X;X].2X&X1X1X;X_.'.1X1X@X Xj.'.@X:X_.=X@X1X6X2XXX=X@X|.].@X;X@X!.&X;XdXdX",
"dXdX=X.X|.@XiX3X2X2X>X+X@X-XeX!.|.+XrX1X=X=X@XeX|.|.0XiX2X1X6X2X6X'.|._._.@X|.].6X_.;X2X}.@X|.2X0X1X1XS..X;X=XH.=X;X@X=X@XeXdXdX",
"dXdXeX1X-X>X.X;X@X}.@X_.0X2X2X;X@X=X2X2X@X|.;XsX@Xx.,X0X1X@X;X2X.X).1X|.)..X@X}.@X'.;X&X.X=X|.2X2X|.|.|.|.6X|.D.b.;X#X@X6X2XdXdX",
"dXdX6.4.;.*.o./ [ _ | O.<.8.q.4.>.-.#.9.5.7.2.@.' $.3.0.w.u.h.i.r.} =.+.,.e.%.&.) ! ^ { ( T c S I ~ Q `  .:...R c ] X.1.t.y.dXdX",
"dXdXD b d j b k y y t x k b b V k d k c k b J S b V J J P F S 9 V P n L b B Z C b b V F V P V V C b k k b . a t a p b n A H dXdX",
"dXdXC V t n k r w 7 9 y b 7 c 9 J x D t a V c b S p Z V I n c j i b n k v W t f c 7 S P D f S k w y V y k d 6 3 5 j t k B K dXdX",
"dXdXD d d d g = q j i a d 3 f d a @ t j k c S S c V A S n b b k L k C F @ H k V C z j b 8 d n k l V 2 t S S # X d J k B V F dXdX",
"dXdXy f t f f t n c b B d o k j x # k D $ b Y E t m V 1 d 5 * x S 7 N Z , G B x 7 V : 9 B S k k v d m V V b t + b H 3 A V x dXdX",
"dXdXj t - y 0 6 j 3 b f B O V d r a J P f j H A y b a j a o > S a B D x V D f 9 L D j b x b b V D ; B I b V f 9 a b k c u n dXdX",
"dXdXd k   h B n 7 d d 1 x c A b % V n f V t a e k b v a y = > k V k S S n V k V b L S x c D Y H n < s m a c A b V x D j & f dXdX",
"dXdXb f 7 n 7 a C 4 a S j d J S A f t n V V x ; w b d d a c a a a r b H z G V C J A C M V k f K H k j 9 y J F y d j J 5 x j dXdX",
"dXdXy t i a 7 w c k B S d f S j B k f i t a b 7 t f b y n n j b d r S F J B H C v c D V C x b S b B d k z z J y r t V t y x dXdX",
"dXdXdXa d d k * a b r j C 7 a S I E C 7 k 9 k f t x V y V C a 3 d c V S H C b y S D K I F U J V 7 B S x x D y B a f k i k dXdXdX",
"dXdXdXdXdXdXdXdXdXdXdXdXdXdXdXdXdXdXdXdXdXdXdXdXdXdXdXdXdXdXdXdXdXdXdXdXdXdXdXdXdXdXdXdXdXdXdXdXdXdXdXdXdXdXdXdXdXdXdXdXdXdXdXdX",
"dXdXdXdXdXdXdXdXdXdXdXdXdXdXdXdXdXdXdXdXdXdXdXdXdXdXdXdXdXdXdXdXdXdXdXdXdXdXdXdXdXdXdXdXdXdXdXdXdXdXdXdXdXdXdXdXdXdXdXdXdXdXdXdX"
};
