/* XPM */
static char *result[] = {
/* columns rows colors chars-per-pixel */
"64 64 206 2 ",
"   c #0E0E0E",
".  c #131313",
"X  c #1B1D1C",
"o  c #1B1917",
"O  c #11100E",
"+  c #201F1A",
"@  c #24231D",
"#  c #372C17",
"$  c #3E321C",
"%  c #1F2121",
"&  c #332A23",
"*  c #212523",
"=  c #4E3618",
"-  c #543A1E",
";  c #50371D",
":  c #442E0C",
">  c #4C3A30",
",  c #5E4F39",
"<  c #6C4C2C",
"1  c #654628",
"2  c #71502F",
"3  c #795633",
"4  c #684D37",
"5  c #784F0D",
"6  c #01274B",
"7  c #002C56",
"8  c #003E65",
"9  c #703F5D",
"0  c #004067",
"q  c #00426A",
"w  c #0B4467",
"e  c #194A67",
"r  c #004A75",
"t  c #004C79",
"y  c #004773",
"u  c #275D7A",
"i  c #2A5467",
"p  c #25627F",
"a  c #386376",
"s  c #3B5153",
"d  c #5A4C42",
"f  c #58564A",
"g  c #715E4C",
"h  c #7B6148",
"j  c #5F476C",
"k  c #4E6A7E",
"l  c #6A7A78",
"z  c #727061",
"x  c #B5161B",
"c  c #B7181E",
"v  c #B8181E",
"b  c #AC1B23",
"n  c #B61E25",
"m  c #9E2736",
"M  c #A5222E",
"N  c #BE2F34",
"B  c #C23839",
"V  c #935F0E",
"C  c #946413",
"Z  c #99630E",
"A  c #A56C13",
"S  c #B87813",
"D  c #855E38",
"F  c #8B623A",
"G  c #92673F",
"H  c #843249",
"J  c #BB2948",
"K  c #976D45",
"L  c #9D734A",
"P  c #917859",
"I  c #A57345",
"U  c #A97646",
"Y  c #A4784D",
"T  c #AC7A4A",
"R  c #A77749",
"E  c #B27D4C",
"W  c #A17A51",
"Q  c #887963",
"!  c #967B66",
"~  c #CC5558",
"^  c #CD5054",
"/  c #CC5A61",
"(  c #D87072",
")  c #BE8925",
"_  c #F9BD02",
"`  c #F6AC1B",
"'  c #D7AD2C",
"]  c #F6BC28",
"[  c #E29310",
"{  c #FBC003",
"}  c #BB854F",
"|  c #AAA05F",
" . c #AD8E74",
".. c #B69779",
"X. c #9AAA7D",
"o. c #C38A54",
"O. c #DFAB4E",
"+. c #C28E76",
"@. c #C89E7E",
"#. c #CCA57A",
"$. c #F6BA6E",
"%. c #EDA162",
"&. c #F7C07C",
"*. c #00528D",
"=. c #005382",
"-. c #005A96",
";. c #165B8A",
":. c #395E90",
">. c #01659C",
",. c #1E6D99",
"<. c #19709D",
"1. c #236D8E",
"2. c #1C72A2",
"3. c #0578BD",
"4. c #1675B4",
"5. c #146FA4",
"6. c #2872A4",
"7. c #405988",
"8. c #49708C",
"9. c #606980",
"0. c #0076C0",
"q. c #007DC4",
"w. c #0A7BC0",
"e. c #117DC0",
"r. c #857485",
"t. c #368BBE",
"y. c #3B83AA",
"u. c #778A93",
"i. c #658A9B",
"p. c #7CA58B",
"a. c #5B89A3",
"s. c #5592B9",
"d. c #628FB2",
"f. c #0080C6",
"g. c #0B83C6",
"h. c #0082C9",
"j. c #0D86C8",
"k. c #1C85C3",
"l. c #1689C8",
"z. c #268AC2",
"x. c #3C92C2",
"c. c #3599D1",
"v. c #2A95D0",
"b. c #33AEE6",
"n. c #3AB2E8",
"m. c #4597C4",
"M. c #4EA6D7",
"N. c #58ABD9",
"B. c #6FADCD",
"V. c #77BCE1",
"C. c #6DB8E0",
"Z. c #4BB8EB",
"A. c #8B9B9F",
"S. c #B89B8D",
"D. c #93A98A",
"F. c #91AD93",
"G. c #8C8EAA",
"H. c #9592AB",
"J. c #8CB0B6",
"K. c #ADBABD",
"L. c #B9BEBD",
"P. c #B9BCB9",
"I. c #C8939D",
"U. c #D7959A",
"Y. c #D49183",
"T. c #E18788",
"R. c #E69596",
"E. c #E79798",
"W. c #E7999A",
"Q. c #E89A9B",
"!. c #E89698",
"~. c #D3AD8A",
"^. c #DCA187",
"/. c #C7A992",
"(. c #EEAD8A",
"). c #E9A28A",
"_. c #F3AA8E",
"`. c #F3A78B",
"'. c #F4AD91",
"]. c #E7BB96",
"[. c #F4B494",
"{. c #F5B996",
"}. c #F6BD99",
"|. c #F6B798",
" X c #CC96A1",
".X c #BBC0BF",
"XX c #ECC29B",
"oX c #F6C39D",
"OX c #F8C59D",
"+X c #F9C99E",
"@X c #F7C79D",
"#X c #F7C187",
"$X c #F9CCA2",
"%X c #F6C6A1",
"&X c #99B5C1",
"*X c #8EB1C3",
"=X c #ADBBC0",
"-X c #BDC2C1",
";X c #85C3E4",
":X c #88C5E5",
">X c #87D0F2",
",X c #C2C7C6",
"<X c #C7CCCB",
"1X c #CFD2D2",
"2X c #D1D4D4",
"3X c None",
/* pixels */
"3X3X3X3X3X3X3X3X3X3X3X3X3X3X3X3X3X3X3X3X3X3X3X3X3X3X3X3X3X3X3X3X3X3X3X3X3X3X3X3X3X3X3X3X3X3X3X3X3X3X3X3X3X3X3X3X3X3X3X3X3X3X3X3X",
"3X3X3X3X3X3X3X3X3X3X3X3X3X3X3X3X3X3X3X3X-X-X3X3X3X3X3X3X3X3X3X3X3X3X3X3X3X3X3X3X3X3X3X3X3X3X3X3X3X3X3X3X3X3X3X3X3X3X3X3X3X3X3X3X",
"3X3X3X3X3X3X3X3X3X3X3X3X3X3X3X3X3X3X<X-XL.-X3X3X3X3X3X3X3X3X3X3X3X3X3X3X3X3X3X3X3X3X3X3X3X3X3X3X3X3X3X3X3X3X3X3X3X3X3X3X3X3X3X3X",
"3X3X3X3X3X3X3X3X3X3X3X3X3X3X3X3X3X-X-X-XL.-X3X3X3X3X3X3X3X3X3X3X3X3X3X3X3X3X3X3X3X3X3X3X3X3X3X3X3X3X3X3X3X3X3X3X3X3X3X3X3X3X3X3X",
"3X3X3X3X3X3X3X3X3X3X3X3X3X3X3X3X3X-X-X-X-X-X3X3X3X3X3X3X3X3X3X3X3X3X3X3X3X3X3X3X3X3X3X3X3X3X3X3X3X3X3X3X3X3X3X3X3X3X3X3X3X3X3X3X",
"3X3X3X3X3X3X3X3X3X3X3X3X3X3X3X3X,XL.-X-X-X-X3X3X3X3X3X3X3X3X3X3X3X3X3X3X3X3X3X3X3X3X3X3X3X3X3X3X3X3X3X3X3X3X3X3X3X3X3X3X3X3X3X3X",
"3X3X3X3X3X3X3X3X3X3X3X3X3X3X3X3X-X,X<X<X2X2X3X3X3X3X3X_ _ 3X3X3X3X3X3X3X3X3X3X3X3X3X3X3X3X3X3X3X3X3X3X3X3X3X3X3X3X3X3X3X3X3X3X3X",
"3X3X3X3X3X3X3X_ 3X3X3X3X3X3X3X<X2X2X2X2X2X3X3X3X3X3X3X3X{ 3X3X3X3X3X3X3X3X3X3X3X3X3X3X3X3X3X3X3X3X3X3X3X3X3X3X3X3X3X3X3X3X3X3X3X",
"3X3X3X3X3X3X3X{ { { 3X3X3X3X3X2X2X2X2X1X3X3X3X3X3X3X3X3X3X3X3X3X3X3X3X3X3X3X3X3X3X3X3X3X3X3X3X3X3X3X3X3X3X3X3X3X3X3X3X3X3X3X3X3X",
"3X3X3X3X3X3X3X3X3X3X3X3X3X3X3X2X1X1X1X<X3X3X3X3X3X3X3X3X3X3X3X3X3X3X3X3X3X3X3X3X3X3X3X3X3X3X3X3X3X3X3X3X3X3X3X3X3X3X3X3X3X3X3X3X",
"3X3X3X3X3X3X3X3X3X3X3X3X3X3X2X2X2X2X2X3X3X3X3X3X3X3X3X3X3X3X3X3X3X3X3X3X3X3X3X3X3X3X3X3X3X3X3X3X3X3X3X3X3X3X3X3X3X3X3X3X3X3X3X3X",
"3X3X3X3X3X3X3X3X3X3X3X3X3X3X2X2X1X2X3X3X3X3X3X3X3X3X3X3X3X3X3X3X3X3X3X3X3X3X3X3X3X3X3X3X3X3X3X3X3X3X3X3X3X3X3X3X3X3X3X3X3X3X3X3X",
"3X3X3X3X3X3X3X3X3X3X3X3X3X3X2X2X1X,X3X3X3X3X3X3X3X3X3X3X3X3X3X3X3X3X3X3X3X3X3X3X3X3X3X3X3X3X3X3X3X3X3X3X3X3X3X3X3X3X3X3X3X3X3X3X",
"3X3X3X3X3X3X3X3X3X3X3X3X3X2X<X,X-X3X3X3X3X3X3X3X3X3X3X3X3X3X3X3X3X. X X X 3X3X3X  X % .   3X3X3X3X3X3X3X3X3X3X3X3X3X3X3X3X3X3X3X",
"3X3X3X3X3X3X3X3X3X3X3X3X3XL.L.-X-X3X3X3X3X3X3X3X3X3X3X3X3X3X3X  O # $ # X o O   . X X O   3X3X3X3X3X3X3X3X3X3X3X3X3X3X3X3X3X3X3X",
"3X3X3X3X3X3X3X3X3X3X3X3XL.L..X.X3X3X3X3X3X3X3X3X3X3X3X3X3XX O O 5 | J.D.A # O   O X X O 3X3X3X3X3X3X3X3X3X3X3X3X3X3X3X3X3X3X3X3X",
"3X3X3X3X3X3X3X3X3X3X3X3XL.-X-X-X3X3X3X3X_ 3X3X3X3X3X3X3X3XX - C F.>X>XZ.F.V :     X X O O . X % 3X3X3X3X3X3X3X3X3X3X3X3X3X3X3X3X",
"3X3X3X3X3X3X3X3X3X3X*.*.a.K.,X3X3X3X3X{ 3X3X3X3X3X3X3X3XX ' { ` F.n.b.n.D.` ] ' Z X X O   . X X 3X3X3X3X3X3X3X3X3X3X3X3X3X3X3X3X",
"3X3X3X3X3X3X3X3X3X3Xa *.*.*.-.3X3X3X3X3X3X3X3X3X3X3X3XX @ O.$.&.O.D.p.D.) C V V [ S #     . X X 3X3X3X3X3X3X3X3X3X3X3X3X3X3X3X3X",
"3X3X3X3X3X3X3X3X3XU U Y z ;.*.*.3X3X3X3X3X3X3X3X3X3X3X% /.+X+X+X+X#X$.#.X o g   . * o     X X 3X3X3X3X3X3X3X3X3X3X3X3X3X3X3X3X3X",
"3X3X3X3X3X3X3X3X} U U R I T 3X3X3X3X3X3X3X3X3X3X3X3X3X..@X$X$X].].+X$X$X~.~.$X%XQ d o O O X X 3X3X3X3X3X3X3X3X3X3X3X3X3X3X3X3X3X",
"3X3X3X3X3X3X3X3X3XR U R F 3 U U 3X3X3X3X3X3X3X3X3X3X3X~.$X@X@X! ! +X$X+X~.d  .$X$X+XOX&   X * 3X3X3X3X3X3X3X3X3X3X3X3X3X3X3X3X3X",
"3X3X3X3X3X3X3X3X3XU D D F I T T R l 3X3X3X3X3X3X3X3X3XoX@X@X+XXX..XX$XXX..~.+XOX$XOXOX&   X X 3X3X3X3X3X3X3X3X3X3X3X3X3X3X3X3X3X",
"3X3X3X3X3X3X3X3X3X6 g K I R U U P 6.q.3X3X3X3X3X3X3X3X{.{.@XY.X  .$X+X$X]...XX$XOXoX}.> O X 3X3X3X3X3X3X3X3X3X3X3X3X3X3X3X3X3X3X",
"3X3X3X3X3X3X3X3X3X7 6 6 3Xo.T U l f.f.q.q.q.3X3X3X3X3X[.[.[.{.@.XX@X$X$X]. .XX@X}.[.[.^.+.+.3X3X3X3X3X3X3X3X3X3X3X3X3X3X3X3X3X3X",
"3X3X3X3X3X3X3X3X3X3X3X3X3X3X3XW 8.f.q.q.q.q.q.q.h.3X3X'.'.[.}.oX+X+X{.@X+X+X+X{.{._.'.'.`.[.|.3X3X3X3X3X3X3X3X3X3X3X3X3X3X3X3X3X",
"3X3X3X3X3X3X3X3X3X3X3X3X3X3X3X3X3X3.q.f.f.q.q.q.q.h.d.[.[.|.}.%X$X@X@X+X+X+XXX}.[.'._._.`.'.3X3X3X3X3X3X3X3X3X3X3X3X3X3X3X3X3X3X",
"3X3X3X3X3X3X3X3X3X3X3X3X3X3X3X3X3X3Xq.f.q.h.q.q.q.q.x./.|.}.oXOXoX).$X{.).+XOXoX[.'.'.'.'.3X3X3X3X3X3X3X3X3X3X3X3X3X3X3X3X3X3X3X",
"3X3X3X3X3X3X3X3X3X3X3X3X3X3X3X3X3X3X3Xf.f.q.q.q.q.h.h.J.XX%XOX+X$X/ J ^ oX+X+X$X%X|.|.3X3X3X3X3X3X3X3X3X-X-X3X3X3X3X3X3X3X3X3X3X",
"3X3X3X3X3X3X3X3X3X3X3X3X3X3X3X3X3X3X3X3Xf.f.h.h.h.q.q.q.m.S.OX+X$X$X$X+X+X+X+X$X}.%.J 3X3X3X3X3X3X3X3X3X-XL.l.3X3X3X3X3X3X3X3X3X",
"3X3X3X3X3X3X3X3X3X3X3X3X3X3X3X3X3X3X3X3X3X3Xh.f.q.q.q.q.q.q.b ^ (.(.[.(.(.(.(.(.x x M 3X3X3X3X3X3X3X3X,X-Xk.q.3X3X3X3X3X3X3X3X3X",
"3X3X3X3X3X3X3X3X3X3X3X3X3X3X3X3X3X3X3X3X3X3X3X3Xq.h.q.q.q.q.:.n v b x v x x x x M :.4.f.q.q.3X3X3X3X3XL.=Xl.h.3X3X3X3X3X3X3X3X3X",
"3X3X3X3X3X3X3X3X3X3X3X3X3X3X3X3X3X3X3X3X3X3X3X3X3Xq.q.q.q.q.q.6.9 H M b m H H 4.q.q.q.3.q.q.h.q.3X3X3X-Xm.j.q.h.3X3X3X3X3X3X3X3X",
"3X3X3X3X3X3X3X3X3X3X3X3X3X3X3X3X3X3X3X3X3X3X3X3X3X3Xj q.q.q.q.q.f.q.4.;.3.w.q.f.q.q.q.q.h.q.h.q.q.3X-XL.x.q.h.q.3X3X3X3X3X3X3X3X",
"3X3X3X3X3X3X3X3X3X3X3X3X3X3X3X3X3X3X3X3X3X3X3X3X3Xn ^ H.z.q.q.h.q.q.q.>.q.f.q.f.q.q.q.q.q.h.h.q.f.w..X.Xm.h.q.q.3X3X3X3X3X3X3X3X",
"3X3X3X3X3X3X3X3X3X3X3X3X3X3X3X3X3X3X3X3X3X3X3Xx n N E.W.G.q.h.q.f.q.N.2.N.h.q.f.q.q.q.q.q.q.q.h.f.g..XL.x.q.q.0.3X3X3X3X3X3X3X3X",
"3X3X3X3X3X3X3X3X3X3X3X3X3X3X3X3X3X3X3X3X3X3Xn n ~ !.!.!. Xq.g.N.c.w.;X2.;Xc.c.:Xc.f.h.g.H.d.f.f.h.g..XK.z.q.q.q.3X3X3X3X3X3X3X3X",
"3X3X3X3X3X3X3X3X3X3X3X3X3X3X3X3X3X3X3X3X3Xx n ( R.R.R.!. Xq.l.;X:XN.;X2.;XM.V.;XC.q.f.f.Q.Q.3Xj.g.g..XB.g.f.q.h.3X3X3X3X3X3X3X3X",
"3X3X3X3X3X3X3X3X3X3X3X3X3X3X3X3X3X3X3Xx x B T.!.W.R.W.W. Xh.g.N.;X;X;X<.:X:X;X:Xv.q.f.f.Q.3XA.u.u.i..X*Xk.q.h.h.3X3X3X3X3X3X3X3X",
"3X3X3X3X3X3X3X3X3X3X3X3X3X3X3X3X3X3Xx B T.E.W.Q.W.W.W.!.Q.q.q.h.c.N.;X<.:XV.N.h.f.q.q.f.Q.3X3X4.y.a..XJ.z.3.q.h.3X3X3X3X3X3X3X3X",
"3X3X3X3X3X3X3X3X3X3X3X3X3X3X3X3X3XB ( R.R.R.E.Q.W.!.W.W.U.q.q.q.q.q.:X2.;Xv.q.f.q.q.q.q.R.3X3XQ Q Q =X&Xz.q.q.q.3X3X3X3X3X3X3X3X",
"3X3X3X3X3X3X3X3X3X3X3X3X3X3X3X~ ( R.R.R.E.E.R.R.W.W.W.W.W.q.q.q.q.q.h.>.j.q.q.q.q.3.q.q.!.3X3XU U U -XK.x.q.q.q.3X3X3X3X3X3X3X3X",
"3X3X3X3X3X3X3X3X3X3X3X3X3XT.T.Q.R.Q.E.Q.E.R.R.R.W.Q.W.W. Xq.q.q.q.f.h.>.f.q.q.f., , 1.q.3XU E E U E L.L.x.q.q.q.3X3X3X3X3X3X3X3X",
"3X3X3X3X3X3X3X3X3X3X3XQ.!.R.Q.Q.E.!.Q.Q.Q.Q.Q.Q.Q.W.E.!.U.q.q.q.q.h.q.>.f.f.3.f < < 1 k 3XI F G R T P.L.x.q.q.f.3X3X3X3X3X3X3X3X",
"3X3X3X3X3X3X3X3X3X3X3X3XQ.Q.Q.Q.E.E.Q.R.Q.R.E.Q.W.!.R.R.< = - - - - = - - = - - 1 1 < 1 < T G I T R ..L.m.q.q.q.3X3X3X3X3X3X3X3X",
"3X3X3X3X3X3X3X3X3X3X3X3X3XE.Q.E.E.R.E.Q.Q.Q.Q.Q.Q.W.W.W.k 1.u u s p 1.p u s i ;.p a f < < F G I R R 3X-X&Xl.q.0.3X3X3X3X3X3X3X3X",
"3X3X3X3X3X3X3X3X3X3X3X3X3X3X3XQ.E.Q.Q.Q.W.Q.Q.Q.W.Q.W.W.t.q.h.h.q.q.q.q.q.q.0.0.3.f.<.f < < 2 F } 3X3XL.L.k.q.3X3X3X3X3X3X3X3X3X",
"3X3X3X3X3X3X3X3X3X3X3X3X3X3X3X3X3X3X3XW.Q.R.Q.R.!.W.W.G.e.q.h.q.q.f.q.q.q.q.q.h.q.q.q.3.,.2 < 2 < 3X3XL.-X*Xh.3X3X3X3X3X3X3X3X3X",
"3X3X3X3X3X3X3X3X3X3X3X3X3X3X3X3X3X3X3X3X3X!.Q.Q.Q.E.Q.d.q.q.q.q.q.q.q.q.q.0.q.q.h.q.q.h.h.5.2 < < < 3X3X-X-X3X3X3X3X3X3X3X3X3X3X",
"3X3X3X3X3X3X3X3X3X3X3X3X3X3X3X3X3X3X3X3X3X3XQ.Q.R.E.!.I.u t t t y y y u I.8.t t y t y t t =.3X3 2 < < 3X3X3X3X3X3X3X3X3X3X3X3X3X",
"3X3X3X3X3X3X3X3X3X3X3X3X3X3X3X3X3X3X3X3X3X3X3X3XQ.R.R.r.w q 8 q q q q U.W.R.e q q q 8 q q q 3X3X3X< 1 3X3X3X3X3X3X3X3X3X3X3X3X3X",
"3X3X3X3X3X3X3X3X3X3X3X3X3X3X3X3X3X3X3X3X3X3X3X3X3X3XE.9.q 8 8 8 8 q y 3X3X3X3Xq q q q q q 8 3X3X3X3X3X3X3X3X3X3X3X3X3X3X3X3X3X3X",
"3X3X3X3X3X3X3X3X3X3X3X3X3X3X3X3X3X3X3X3X3X3X3X3X3X3X3Xq q q q 8 8 q 3X3X3X3X3Xq q q 0 q q q 3X3X3X3X3X3X3X3X3X3X3X3X3X3X3X3X3X3X",
"3X3X3X3X3X3X3X3X3X3X3X3X3X3X3X3X3X3X3X3X3X3X3X3X3X3X3X8 0 q q q q 3X3X3X3X3X3X3X0 q q q 8 8 3X3X3X3X3X3X3X3X3X3X3X3X3X3X3X3X3X3X",
"3X3X3X3X3X3X3X3X3X3X3X3X3X3X3X3X3X3X3X3X3X3X3X3X3X3X3Xq 0 q q q q 3X3X3X3X3X3X3Xq 8 0 q y q q 3X3X3X3X3X3X3X3X3X3X3X3X3X3X3X3X3X",
"3X3X3X3X3X3X3X3X3X3X3X3X3X3X3X3X3X3X3X3X3X3X3X3X3X3X3Xq 0 q q q y 3X3X3X3X3X3X3X3X0 8 0 q q q 3X3X3X3X3X3X3X3X3X3X3X3X3X3X3X3X3X",
"3X3X3X3X3X3X3X3X3X3X3X3X3X3X3X3X3X3X3X3X3X3X3X3X3X3X3X7 8 q q 0 3X3X3X3X3X3X3X3X3Xq q q q 8 8 3X3X3X3X3X3X3X3X3X3X3X3X3X3X3X3X3X",
"3X3X3X3X3X3X3X3X3X3X3X3X3X3X3X3X3X3X3X3X3X3X3X3X3X3X3Xe w w q q 3X3X3X3X3X3X3X3X3Xw q w e e i 3X3X3X3X3X3X3X3X3X3X3X3X3X3X3X3X3X",
"3X3X3X3X3X3X3X3X3X3X3X3X3X3X3X3X3X3X3X3X3X3X3X3X3X3XI I L L L Y 3X3X3X3X3X3X3X3X3XW L L Y W R 3X3X3X3X3X3X3X3X3X3X3X3X3X3X3X3X3X",
"3X3X3X3X3X3X3X3X3X3X3X3X3X3X3X3X3X3X3X3X3X3X3X3X3X3XT T I T T T 3X3X3X3X3X3X3X3X3X3XT T U T T E 3X3X3X3X3X3X3X3X3X3X3X3X3X3X3X3X",
"3X3X3X3X3X3X3X3X3X3X3X3X3X3X3X3X3X3X3X3X3X3X3X3X3X} U R U T T 3X3X3X3X3X3X3X3X3X3X3XE T T R U E 3X3X3X3X3X3X3X3X3X3X3X3X3X3X3X3X",
"3X3X3X3X3X3X3X3X3X3X3X3X3X3X3X3X3X3X3X3X3X3X3X3XT U T I U U T 3X3X3X3X3X3X3X3X3X3X3X3XT U U U T T T 3X3X3X3X3X3X3X3X3X3X3X3X3X3X",
"3X3X3X3X3X3X3X3X3X3X3X3X3X3X3X3X3X3X3X3X3X3X3X3XT U U 3X3X3X3X3X3X3X3X3X3X3X3X3X3X3X3X3X3X3X3XE T E 3X3X3X3X3X3X3X3X3X3X3X3X3X3X",
"3X3X3X3X3X3X3X3X3X3X3X3X3X3X3X3X3X3X3X3X3X3X3X3X3X3X3X3X3X3X3X3X3X3X3X3X3X3X3X3X3X3X3X3X3X3X3X3X3X3X3X3X3X3X3X3X3X3X3X3X3X3X3X3X"
};
