/* XPM */
static char *result[] = {
/* columns rows colors chars-per-pixel */
"64 64 178 2 ",
"   c #325D76",
".  c #40667D",
"X  c #5B7D77",
"o  c #6C9E18",
"O  c #71A11E",
"+  c #679820",
"@  c #6E9E24",
"#  c #709F25",
"$  c #6FA025",
"%  c #72A126",
"&  c #79A627",
"*  c #76AA27",
"=  c #78AC27",
"-  c #75A42A",
";  c #78A72A",
":  c #77A82C",
">  c #78A82D",
",  c #7CB327",
"<  c #7EB728",
"1  c #7CAC33",
"2  c #7CA738",
"3  c #7FB138",
"4  c #7CA441",
"5  c #84BC2C",
"6  c #80B52B",
"7  c #82AC3B",
"8  c #83B43C",
"9  c #89C22F",
"0  c #84AB4A",
"q  c #87B043",
"w  c #8BBC46",
"e  c #8AB14C",
"r  c #8EBE49",
"t  c #87AD50",
"y  c #8AAF53",
"u  c #93B55C",
"i  c #8DAF65",
"p  c #97B667",
"a  c #9AB777",
"s  c #A6C475",
"d  c #A8C578",
"f  c #A5C17D",
"g  c #265C84",
"h  c #2A5D85",
"j  c #2C6087",
"k  c #276089",
"l  c #2C6189",
"z  c #32648C",
"x  c #36698D",
"c  c #39688C",
"v  c #2F6991",
"b  c #346790",
"n  c #366A92",
"m  c #3D6D90",
"M  c #3B6F99",
"N  c #3D7295",
"B  c #3E719C",
"V  c #476E85",
"C  c #4A6E84",
"Z  c #446D8E",
"A  c #4E7389",
"S  c #426E91",
"D  c #457090",
"F  c #4A7494",
"G  c #41749E",
"H  c #4C7999",
"J  c #477C9D",
"K  c #5C7E93",
"L  c #527D9C",
"P  c #4376A1",
"I  c #4578A3",
"U  c #467CAA",
"Y  c #547EA4",
"T  c #5B8194",
"R  c #57809E",
"E  c #59819F",
"W  c #628295",
"Q  c #658698",
"!  c #5581A4",
"~  c #5A82A4",
"^  c #5B86AB",
"/  c #648AA5",
"(  c #6087A8",
")  c #648BAC",
"_  c #6B8FA1",
"`  c #7593A4",
"'  c #7995A5",
"]  c #7494AC",
"[  c #7B96AB",
"{  c #7798A9",
"}  c #7D99AE",
"|  c #7D9AB1",
" . c #9BB481",
".. c #829BAD",
"X. c #8997A6",
"o. c #939AA5",
"O. c #9A9FAA",
"+. c #839DB3",
"@. c #8BA1AF",
"#. c #9AA1AB",
"$. c #87A2B3",
"%. c #8BA3B3",
"&. c #8FA8B7",
"*. c #8BABB8",
"=. c #8FA6BB",
"-. c #90A9B7",
";. c #99AAB6",
":. c #90A7B9",
">. c #93ABBB",
",. c #9BACBB",
"<. c #91A4B5",
"1. c #9DB0BE",
"2. c #A9BAA6",
"3. c #A1AFBB",
"4. c #A3A9B5",
"5. c #ABB5BE",
"6. c #ACB8BF",
"7. c #A7B2BD",
"8. c #ABC48A",
"9. c #B6CD95",
"0. c #B1C69C",
"q. c #BAD194",
"w. c #C0D59E",
"e. c #C6D8AD",
"r. c #C0CEBA",
"t. c #C8D7B4",
"y. c #CAD8B9",
"u. c #CFE0AE",
"i. c #9FB8CA",
"p. c #A4B5C2",
"a. c #AEB7C0",
"s. c #A5B9C4",
"d. c #AEB8C1",
"f. c #AEBECA",
"g. c #B3BCC4",
"h. c #B7BFCA",
"j. c #AFC4CD",
"k. c #B7C0C7",
"l. c #B9C3C4",
"z. c #B3C2CC",
"x. c #BCC4CB",
"c. c #B5C5D1",
"v. c #B9C7D1",
"b. c #BCC9D3",
"n. c #BECCD8",
"m. c #C0C7CE",
"M. c #C1C9CE",
"N. c #C3CFC2",
"B. c #CFD8CC",
"V. c #C5CCD2",
"C. c #C8CFD4",
"Z. c #CBD1D6",
"A. c #CDD4D9",
"S. c #D1D7DC",
"D. c #D4D9DE",
"F. c #D6DED3",
"G. c #DFE9CF",
"H. c #DCE7CA",
"J. c #D5DCE1",
"K. c #D9DEE2",
"L. c #DDE1E5",
"P. c #DEE6EA",
"I. c #E0E4E7",
"U. c #E2E6E9",
"Y. c #E5E9EC",
"T. c #EAECEE",
"R. c #ECF2E4",
"E. c #F1F6EB",
"W. c #E5ECF0",
"Q. c #EBEEF1",
"!. c #EEF1F3",
"~. c #F2F4F5",
"^. c #F9FBF5",
"/. c #F6F7F8",
"(. c #F7F8F9",
"). c #FEFEFE",
"_. c #F6F8F2",
"`. c None",
/* pixels */
"`.`.`.`.`.`.`.`.`.`.`.`.`.`.`.`.`.`.`.`.`.`.`.`.`.`.`.`.`.`.`.`.`.`.`.`.`.`.`.`.`.`.`.`.`.`.`.`.`.`.`.`.`.`.`.`.`.`.`.`.`.`.`.`.",
"`.`.`.`.`.`.`.`.`.`.`.`.`.`.`.`.`.`.`.`.`.`.`.`.`.`.`.`.`.`.`.`.`.`.`.`.`.`.`.`.`.`.`.`.`.`.`.`.`.`.`.`.`.`.`.`.`.`.`.`.`.`.`.`.",
"`.`.`.`.`.`.`.`.`.`.`.`.`.`.`.`.`.`.`.`.`.`.`.`.`.`.`.`.`.`.`.`.`.`.`.`.`.`.`.`.`.`.`.`.`.`.`.`.`.`.`.`.`.`.`.`.`.`.`.`.`.`.`.`.",
"`.`.`.`.`.`.`.`.`.`.`.`.`.`.`.`.`.`.`.`.`.`.`.`.`.`.`.`.`.`.`.`.`.`.`.`.`.`.`.`.`.`.`.`.`.`.`.`.`.`.`.`.`.`.`.`.`.`.`.`.`.`.`.`.",
"`.`.`.`.`.`.`.`.`.`.`.`.`.`.`.`.`.`.`.`.`.`.`.`.`.`.`.`.`.`.`.`.`.`.`.`.`.`.`.`.`.`.`.`.`.`.`.`.`.`.`.`.`.`.`.`.`.`.`.`.`.`.`.`.",
"`.`.`.`.`.`.`.`.`.`.`.`.`.`.`.`.`.`.o.`.`.`.`.`.`.`.`.`.`.`.`.`.`.`.`.`.`.`.`.`.`.`.`.`.`.`.`.`.`.`.`.`.`.`.`.`.`.`.`.`.`.`.`.`.",
"`.`.`.`.`.`.`.`.`.`.`.`.`.`.`.`.`.`.o.`.`.`.`.`.`.`.`.`.`.`.`.`.`.`.`.`.`.`.`.`.`.`.`.`.`.`.`.`.`.`.`.`.`.`.`.`.`.`.`.`.`.`.`.`.",
"`.`.`.`.`.`.`.`.`.`.`.`.`.`.`.`.`.`.o.`.`.`.`.`.`.`.`.`.`.`.`.`.`.`.`.`.`.`.`.`.`.`.`.`.`.`.`.`.`.`.`.`.`.`.`.`.`.`.`.`.`.`.`.`.",
"`.`.`.`.`.`.`.`.`.`.`.`.`.`.`.`.`.`.h `.`.`.`.`.`.`.`.`.`.`.`.`.`.`.`.`.`.`.`.`.`.`.`.`.`.`.`.`.`.`.`.`.`.`.`.`.`.`.`.`.`.`.`.`.",
"`.`.`.`.`.`.`.`.`.`.`.`.`.`.`.`.`.l h `.`.`.`.`.`.`.`.`.`.`.`.`.`.`.`.`.`.`.`.`.`.`.`.`.`.`.`.`.`.`.`.`.`.`.`.`.`.`.`.`.`.`.`.`.",
"`.`.`.`.`.`.`.`.`.`.`.`.`.`.`.`.`.l l l `.`.`.`.`.`.`.`.`.`.`.`.`.`.`.`.`.`.`.`.`.`.`.`.`.`.`.`.`.`.`.`.`.`.`.`.`.`.`.`.`.`.`.`.",
"`.`.`.`.`.`.`.`.`.`.`.`.`.`.`.`.G B l l `.`.`.`.`.`.`.`.`.`.`.`.`.`.`.`.`.`.`.`.`.`.`.`.`.`.`.`.`.`.`.`.`.`.`.`.`.`.`.`.`.`.`.`.",
"`.`.`.`.`.`.`.`.`.`.`.`.`.`.`.G P P l l v `.`.`.`.`.`.`.`.`.`.`.`.`.`.`.`.`.`.`.`.`.`.`.`.`.`.`.`.`.`.`.`.`.`.`.`.`.`.`.`.`.`.`.",
"`.`.`.`.`.`.`.`.`.`.`.`.`.`.`.B B P n l h `.`.`.`.`.`.`.`.`.`.`.`.`.`.`.`.`.`.`.`.`.`.`.`.`.`.`.`.`.`.`.`.`.`.`.`.`.`.`.`.`.`.`.",
"`.`.`.`.`.`.`.`.`.`.`.`.`.`.`.C.T.T.` h h `.`.`.`.`.`.`.`.`.`.`.`.`.`.`.`.`.`.`.`.`.`.`.`.`.`.`.`.`.`.`.`.`.`.`.`.`.`.`.`.`.`.`.",
"`.`.`.`.`.`.`.`.`.`.`.`.`.`.`.Z.' W.V.T.`.`.`.`.`.4.`.`.`.`.`.`.`.`.`.`.`.`.`.`.`.`.`.`.`.`.`.`.`.`.`.`.`.`.`.`.`.`.`.`.`.`.`.`.",
"`.`.`.`.`.`.`.`.`.`.`.`.`.`.`.V.).).Z.).`.`.`.`.`.`.`.`.`.`.`.`.`.`.`.`.`.`.`.`.`.`.`.`.`.`.`.`.`.`.`.`.`.`.`.`.`.`.`.`.`.`.`.`.",
"`.`.`.`.`.`.`.`.`.`.`.`.`.`.`.x.D.D.x.K.g.`.`.`.`.Y `.`.`.`.`.`.`.`.`.`.`.`.`.`.`.`.`.`.`.`.`.`.`.`.`.`.`.`.`.`.`.`.`.`.`.`.`.`.",
"`.`.`.`.`.`.`.`.`.`.`.`.`.`.g.T.).).(.(.(.a.`.`.`.P I `.`.`.`.`.`.`.`.`.`.`.`.`.`.`.`.`.`.`.`.`.`.`.`.`.`.`.`.`.`.`.`.`.`.`.`.`.",
"`.`.`.`.`.`.`.`.`.`.`.`.`.`.`.g.x.x.x.x.g.h.`.`.I G P `.`.`.`.`.`.`.`.`.`.`.`.`.`.`.`.`.`.`.`.`.`.`.`.`.`.`.`.`.`.o.`.`.`.`.`.`.",
"`.`.`.`.`.`.`.`.`.`.`.`.`.`.`.Z./.).).(.S.`.`.`.P M P M `.`.`.`.`.`.`.`.`.`.`.`.`.`.`.`.`.`.`.`.`.`.`.`.`.`.`.`.G G `.`.`.`.`.`.",
"`.`.`.`.`.`.`.`.`.O.`.`.`.`.`.A.).).).).D.`.`.! P G G G `.`.`.`.`.`.`.`.`.`.`.`.`.`.`.`.`.`.`.`.`.`.`.`.`.`.`.P G G G `.`.`.`.`.",
"`.`.`.`.`.`.`.`.o.X.`.`.`.`.`.A.).).).).S.`.s.,.+.3.%.} a.`.`.`.`.`.`.`.`.`.`.O.`.`.`.`.`.`.`.`.`.`.`.`.`.`.I P G G B P U `.`.`.",
"`.`.`.`.`.`.`.`.E h h h h h m m.).(.).).S.h ..A.g.K.k.h.d.c h h l h l l l h h l g `.`.`.`.`.`.`.`.`.`.`.`.P B G B B M P P `.`.`.",
"`.`.`.`.`.`.`.n b.m g h h h c d.g.g.g.h.g.j [ )./.).(.(.5.c g l l h h l h h h g h `.`.`.`.`.`.`.`.`.`.`.`.`.x.K b.K [ ..,.`.`.`.",
"`.`.`.`.`.G n ] (.v.l l P n h h h b z g k j / 6.k.x.l.h.%.z g z z h h h h b h h h j I P `.`.`.`.`.`.`.`.`.`.L.%.(.p.A.z.k.`.`.`.",
"`.`.`.`.U G l T.)./.L n P G z h h M G l h h c x.(.U.(.K.F h h B P l h h z G G g h l I P `.`.`.`.`.`.`.`.`.`.I.).).).).~.g.`.`.`.",
"`.`.`.`.G M f.).).).Y.G I G B h z Y Y z h h h x.).` ).D.Z h n Y ! z h h G ~ Y h h B I I P `.`.`.`.`.`.`.`.`.g.g.k.x.k.5.`.`.`.`.",
"`.`.`.`.s.c.L.).).).).s.v.v.+.l L J.J.j h h z x.).Y.).K.Z h G D.A.S h h +.J.S.g h +.v.v.,.`.`.`.`.`.`.`.`.`.`.V./.(./.7.`.`.`.`.",
"`.`.`.`.;.T U.).T ).).C.W K.,.h / ).).j g h } V.V.V.x.V.5.z N ).).H l h s.).).h h ,.[ z.g.`.`.x.`.`.`.`.`.`.5.C.Y.Y.Y.g.`.`.`.`.",
"`.`.`.`.Z.J.U.).L.).).Z.L.~.,.h c Y ! g h h [ ).).).).).5.z l L I c g h m H ! h h ,.L.Q.a.b.g.5.a.`.`.`.`.V.T.T.T.T.!.T.Q.`.`.`.",
"`.`.`.`.g.a.Z.L.L.L.L.m.d.g.g.s.g.| i.%.| s.d.d.g.g.g.g.g.[ >.1.+.] %.p.,.p.p.h.p.k.g.5.g.5.5.7.a.`.`.`.`.M.).).)./.).).).`.`.`.",
"`.`.`.`.`.`.L.J./.~.A.L.k.D.D.D.D.D.K.M.D.D.D.x./././.D.Z.D.J.D.C.S.D.D.D.D.D.D.D.D.S.5.5.5.d.5.7.`.`.`.`.k.J.V.K.V.D.A.C.`.`.`.",
"`.`.`.`.`.`.U.K s.1.C L.C.).J.).~.T.).D.).J.(.x.).J.).D.V.P.J.).T.(.).J.).).L.).).).W.| 3.7.5.d.7.`.`.`.`.`.V.x.A.V.C.Z.g.`.`.`.",
"`.`.`.`.`.`.S.A.Y.P.J.U.V.).V ).J.{ ).D.).C ).x.)._ ).K.Z.I.V ~.Q.(.).  ).).Q ).).Q.^ G ~ 5.d.d.d.`.`.`.`.`.a.(.(.).(.D.`.`.`.`.",
"`.`.`.`.`.P B B P P !.Y.C.).).).).).).D.).(.(.m.).).).K.A.U.).).T.(.).).).).).).n.N G G P n j l h M B M h h [ ).).).).K.`.`.`.`.",
"`.`.`.`.`.+.F $.| =.~.Y.Z.).).).).).).J.).).(.g.K.K.L.C.A.I.).).T.).).).).).).Y.G G G G I P n l z B G M z h z U.).).).K.`.`.`.`.",
"`.`.`.`.`.5.Q D.Z.D.K.A.x.U.L.K.I.L.L.D.L.I.L.x.).~.).K.m.Z.L.K.K.L.L.L.I.L.J.H D x.L.K.K.b.k l P G G P P h h H !.z.Q.K.`.`.`.`.",
"`.`.`.`.`.d.Y.~.~.S.!.L.Z.(.(.(.(.(.(.K./.(.~.x.)...).K.V.K./.(.Y.~.(.(.(.~.>.h D Z.!.j.).Z.h b ~ ^ ) ) ) n h l b.W.(.K.`.`.`.`.",
"`.`.`.`.`.g.d.g.g.g.).U.V.).!.).).(.).K.).!.(.x.).s.).K.A.I.(.).T.(.).~.).W.l h F Z.!.,.).S.x N k.K.K.K.m.n x x ! U.).K.`.`.`.`.",
"`.`.`.`.`.`.D.U.Y.T.).I.V.).W ).U.s.).K.).K /.x.).).).K.A.I.' /.T.(.(.W ).L j k F Z.).).).S.D.S.V.).f.).D.S.U.h.I./.).K.`.`.`.`.",
"`.`.`.`.`.`.U.).).).).Y.C.).%.).!.J.).K.).*.).x.).).).K.C.U.z.).T.(.).i.c.j n l L x.J.K.D.x.D.D.V.).<.).D.S.E.g.T.T.(.L.`.`.`.`.",
"`.`.`.`.`.`.U.).).^.e.F.V.).).).).).).D.).).(.x.).S.).L.A.I.).).E.(.).).).(.S.!.L.A.).).).A.V.V.M./.~./.Z.V.D.k.Y.x.!.K.`.`.`.`.",
"`.`.`.`.`.`.I.)._.O - % l.).).).).).).D.).).(.b.).' ).K.S.U.).).Q.(.).).).(.K.).Y.Z.P.%.).A.D.S.x.K.K.L.m.S.~.g.T.).).J.`.`.`.`.",
"`.`.`.`.`.`.B.q.7 # % % & ).*.).Q.z.).S.).-.(.M.).J.).K.A.U.>.(.Q.(.).$.).(.L.).T.Z.~.Z.).A.D.D.V.).).).S.S.!.6.T.).).D.`.`.`.`.",
"`.`.`.`.`.`.% - - & & - % O X ).J.$.).K.).C (.x.).).).L.A.U.W ~.T.(.).. ).(.K.).U.A.).).).C.D.S.V.).[ ).S.S.~.g.Y.).).L.`.`.`.`.",
"`.`.`.`.`.@ $ % % - % 8 % % q ).).).).J.).).).x.).).).L.Z.P.).).Q.(.).).).(.D.Q.D.M.T.T.T.V.D.S.V.).V.).S.Z.T.g.P.p.p.x.`.`.`.`.",
"`.`.`.`.- % % % - - % 8 % - 2 H.E.).).J.).).(.m.).@.).D.Z.I.).).Q.(.R.u G.(.K.).T.S.).).).A.V.x.k.D.J.J.M.x.S.k.Y.&.b.x.`.`.`.`.",
"`.`.- % % % $ % - % - % @ % % - - s ).J.).).).x.).f.).D.A.I.E.9.8.e.e % @ f L.).T.Z.Y.$.).Z.D.D.M././.~.Z.A.~.g.Y.).).D.`.`.`.`.",
"`.`.% % % $ @ @ - % % % % o - - % - u.S.).A (.x.).).).L.A.B.@ % $ @ @ @ 8 % t.).I.A.).).).S.D.D.V.).).).S.D.E.g.T.).(.0 $ * `.`.",
"`.6 $ @ % @ 8 1 % % % $ # % 8 - # % d r.).;.).x.).).).y.V.y % @ @ % @ @ : # p q.B.V.Q.Q.Q.C.Z.Z.M.Q.Q.T.C.M.9.o e q.# : % $ `.`.",
"`.* - 8 % $ % - % % @ % @ % 1 # # # : - w.).~.2./.).2 # - @ @ @ 8 @ # @ @ % # % t x.D.D.D.m.m.m.k.D.D.S.k.2.@ @ # % @ 7 - @ < `.",
"`.- $ 1 @ % % % @ % @ @ @ % # % @ @ % @ $ q.@ @ % s - % @ @ @ % 3 @ @ @ % % % @ #  .a 8.D.x.M.M.k.K.0.% 4 O % 8 # # % # % % 5 `.",
"`.% @ @ % % % @ @ @ % % % % % @ @ @ @ + % % + @ @ @ $ 1 @ @ o % % % @ # @ $ % % % % @ @ i x.i 2 p N.% % - % % w % @ @ % @ % 5 `.",
"`.= @ @ % % % % % % 1 8 - @ @ @ % % @ % 1 + % @ % % % 1 % @ % % % # % % > w # % - > % # @ t % @ # # @ - - % % % # % % * $ $ , `.",
"`.; @ @ @ @ % @ % % - > - % # @ $ % % $ 8 % @ % % - % % % % % % @ @ # @ % > @ % % 8 % % % # : @ @ # @ % ; % - - % % - 8 % - 9 `.",
"`.- % @ @ 8 1 % % % @ % % $ % % - % % @ % % % % % % % % % # % % @ @ @ @ @ - # $ % % $ @ % - r # % # % % 8 % % - % % % > % - , `.",
"`.5 % % % % % % @ % @ @ @ % % % 8 @ % o @ - @ % % % % @ % % @ > % @ % @ % % @ % % % % % % % : # % % % % - - % - : % @ % % % 5 `.",
"`.5 # $ @ + @ % @ % - % % % % % 3 % % $ @ $ % : 1 @ % % % % @ 8 % @ % % % % % % % % % $ % % % : > % # o % - - r % # @ - - - , `.",
"`.& % - % % # % % 1 > % % % % @ % - % - @ % @ % - % % @ @ @ @ % @ @ % % % $ - q $ % % @ # @ - 3 8 % % # % - % : @ @ # % % 1 5 `.",
"`.= % % % @ % % @ : @ % % @ @ % % % @ % @ # @ % : - - # $ % $ $ % $ @ % $ $ % 3 @ % % @ % @ % # @ % % @ @ @ % % @ @ @ # % % 5 `.",
"`.`.% $ @ % % @ # @ % % % @ + % % % % - % % % - % % % @ % % % % % $ % - % % - % % % % @ $ % % @ @ % @ % % % @ % % @ @ @ @ - `.`.",
"`.`.`.`.`.`.`.`.`.`.`.`.`.`.`.`.`.`.`.`.`.`.`.`.`.`.`.`.`.`.`.`.`.`.`.`.`.`.`.`.`.`.`.`.`.`.`.`.`.`.`.`.`.`.`.`.`.`.`.`.`.`.`.`.",
"`.`.`.`.`.`.`.`.`.`.`.`.`.`.`.`.`.`.`.`.`.`.`.`.`.`.`.`.`.`.`.`.`.`.`.`.`.`.`.`.`.`.`.`.`.`.`.`.`.`.`.`.`.`.`.`.`.`.`.`.`.`.`.`."
};
