/* XPM */
static char *result[] = {
/* columns rows colors chars-per-pixel */
"64 64 114 2 ",
"   c #83532F",
".  c #84592F",
"X  c #865631",
"o  c #895732",
"O  c #875932",
"+  c #8B5B34",
"@  c #8F5F38",
"#  c #925E37",
"$  c #925F38",
"%  c #876432",
"&  c #8D6235",
"*  c #8D6A35",
"=  c #8E6038",
"-  c #8F6C38",
";  c #916037",
":  c #906D37",
">  c #906138",
",  c #99663B",
"<  c #926B39",
"1  c #8F7137",
"2  c #927439",
"3  c #937C3A",
"4  c #8C7244",
"5  c #63A627",
"6  c #65A828",
"7  c #6BAB2B",
"8  c #72AF2E",
"9  c #74B02F",
"0  c #75B131",
"q  c #7CB433",
"w  c #95833B",
"e  c #98853D",
"r  c #968A3C",
"t  c #988C3E",
"y  c #97933B",
"u  c #9A953E",
"i  c #9A9E3E",
"p  c #9BA43E",
"a  c #9BAA3E",
"s  c #81B735",
"d  c #84B836",
"f  c #8DBE3B",
"g  c #92BF3C",
"h  c #96C23E",
"j  c #9DC53F",
"k  c #8F8549",
"l  c #938242",
"z  c #9B8D40",
"x  c #9C9541",
"c  c #959D47",
"v  c #9C9B41",
"b  c #969F4C",
"n  c #9EA440",
"m  c #9EAB41",
"M  c #9FB042",
"N  c #9FB941",
"B  c #9BB24F",
"V  c #94B94F",
"C  c #A0A444",
"Z  c #A0AC43",
"A  c #A1B244",
"S  c #A3BB45",
"D  c #A7BC48",
"F  c #96C340",
"G  c #9DC643",
"H  c #9EC74E",
"J  c #9DC653",
"K  c #9EC855",
"L  c #9EC859",
"P  c #A3C544",
"I  c #A6CA46",
"U  c #A9CD47",
"Y  c #A7C249",
"T  c #A9C54A",
"R  c #A5CA49",
"E  c #A9CD49",
"W  c #AAD046",
"Q  c #ADD24A",
"!  c #B1D54D",
"~  c #A2C953",
"^  c #A1C958",
"/  c #4DA6DE",
"(  c #4EA8DF",
")  c #51A7DB",
"_  c #54ABDD",
"`  c #58AFDF",
"'  c #4EA7E0",
"]  c #4FA8E0",
"[  c #53ACE1",
"{  c #5BAEE2",
"}  c #57B0E3",
"|  c #5CB1E3",
" . c #62B3E4",
".. c #6BB7E5",
"X. c #6DB9E6",
"o. c #72BBE7",
"O. c #75BDE8",
"+. c #7DC1E9",
"@. c #85C4EA",
"#. c #89C6EA",
"$. c #8EC9EB",
"%. c #95CCEC",
"&. c #9CCFEE",
"*. c #A4D3EF",
"=. c #A7D5F0",
"-. c #AED7F1",
";. c #B3DBF2",
":. c #BBDEF3",
">. c #BEE0F3",
",. c #C4E3F4",
"<. c #CAE6F6",
"1. c #CFE8F6",
"2. c #D2EAF7",
"3. c None",
/* pixels */
"3.3.3.3.3.3.3.3.3.3.3.3.3.3.3.3.3.3.3.3.3.3.3.3.3.3.3.3.3.3.3.3.3.3.3.3.3.3.3.3.3.3.3.3.3.3.3.3.3.3.3.3.3.3.3.3.3.3.3.3.3.3.3.3.",
"3.3.3.3.3.3.3.3.3.3.3.3.3.3.3.3.3.3.3.3.3.3.3.3.3.3.3.3.3.3.3.3.3.3.3.3.3.3.3.3.3.3.3.3.3.3.3.3.3.3.3.3.3.3.3.3.3.3.3.3.3.3.3.3.",
"3.3.[ [ [ [ { [ [ [ ] ] [ [ [ [ [ [ [ [ [ [ [ [ [ [ [ [ [ [ [ [ [ [ [ [ [ [ [ [ [ [ } [ [ [ [ [ ' [ [ [ [ [ ] [ [ ] [ [ ] [ 3.3.",
"3.3.[ ] ] ] [ [ [ [ ] [ ] [ [ [ ] [ [ ] [ } [ ] [ [ [ [ [ [ [ ] [ [ [ [ / ( [ [ [ } [ ] [ [ ] [ [ [ [ } { [ [ [ [ [ [ [ [ [ 3.3.",
"3.3.[ [ [ [ [ [ [ [ [ ] [ ] [ ] [ [ [ } [ | $.%.&.-.>.,.,.,.;.*.@.| [ [ ] ' [ [ [ [ [ [ [ [ [ [ / [ [ [ } [ [ [ [ ] [ [ [ [ 3.3.",
"3.3.| |  .{ { { { [ [ [ ] ] [ ] [ [ [ [ X.>.,.>.,.,.<.<.1.1.<.<.,...} [ [ / ] [ [ | [ [ [ | | | { |  . . . .| [ ( { [ [ [ [ 3.3.",
"3.3.2.2.2.1.2.1.,.;.*.*.%.[ [ [ [ [ [ [ ] [ ( ] [ [ {  .X.o.X. .[ [ [ / ] ] ' [ [ [ [ O.=.;.>.1.2.2.2.2.2.2.,.:.*.&.[ [ [ [ 3.3.",
"3.3.2.2.1.2.2.2.2.2.2.1.>.=.} [ ] ] [ [ ] ] ] [ [ ] ' ' ] [ [ ] } [ [ ' [ ] ] [ [ +.1.2.2.2.2.2.2.2.2.2.2.2.2.2.2.2.$.[ [ [ 3.3.",
"3.3.$.@.%.@.#.@.X.X.o.X.[ [ [ [ [ } ] ] ] [ [ [ ] [ } [ [ [ [ [ [ [ [ [ [ [ ] [ ' { ..O.$.#.@.@.$.$.$.$.@.O.o.X.X.X.{ ] [ [ 3.3.",
"3.3.} [ _ } [ } { [ [ [ [ [ [ [ ] / ] [ [ [ [ [ ] [ [ [ [ ] [ [ ] [ [ [ ] ' ] ] [ ' ] [ } [ [ [ } } [ } [ [ [ } [ [ [ [ } ] 3.3.",
"3.3.[ [ [ [ } [ [ } [ [ [ [ ] / [ } [ [ [ [ [ [ [ [ ] [ } [ [ [ [ [ [ [ [ [ [ [ [ [ [ ] [ } [ [ [ } } [ [ [ [ [ [ ) [ [ } [ 3.3.",
"3.3.[ [ } } } } [ [ { [ [ [ [ [ } [ [ [ ] [ [ [ [ [ [ [ [ [ [ [ [ [ [ [ [ [ [ ] ' ' [ [ [ [ [ [ [ ] [ [ ] [ [ [ [ } } [ [ [ 3.3.",
"3.3._ _ _ _ _ _ ) ( } ) [ _ } _ } _ _ ) _ _ _ } ) _ ) [ ( _ _ [ _ _ _ / _ _ _ ) _ _ [ _ _ _ _ ) [ [ ) _ / _ _ ) _ _ _ _ } [ 3.3.",
"3.3.~ ^ K J L ~ ~ R R ~ ~ ^ L J R ~ J ^ H R J ~ R K I J L K K R ~ ^ K ~ ~ ~ ~ V n l k l O = 4 c v B J R H J H R J ~ H ~ ~ ~ 3.3.",
"3.3.E I I I I E E E E E E E E E I E I E I I I E E E I I E I R E I I P S A < + + + + - 3 m I I I I I I I I I I I I I I E E U 3.3.",
"3.3.E I I E E I E E E I E I E I E I 0 Q I I I I I E E E E I E I m 3 1 + + + + 2 n N R I I I I I I I I I I U U I j I E E U E 3.3.",
"3.3.I I I I I I I I R I E E E I U G 7 R I U I I I I U E E D n & + + + + $ 2 m U I I I I I P P R I E I I I I I E h 8 I I I E 3.3.",
"3.3.E Q I I I I I I U I I E E U U R s U R U I I R U E E U < + + + + + + v R E U I I I I I I I U q I I I I I I I h 7 I I I E 3.3.",
"3.3.I E I I I I R I E I R E U I U R U E E E U R I U U Y + @ + X + + & i R E E E I I I I j I I f 8 j G I I P I R I d R I E E 3.3.",
"3.3.I I I I I I E h h I E E I E U E E E E E I P I U E x $ @ + $ + X + S I I U U I I U I I I I f 7 I I I I I I E I I I I I I 3.3.",
"3.3.I I I I I I I q q E E I E I I E I U I I E E E E E v + + + + + o + 2 P I R I U I U I I I I U h E U G U U U U I I I I E U 3.3.",
"3.3.I I I I I U I f s I I I I I I I I I E I E E E E E v + > $ + + + + + 2 P I P I E E I I P I U E E I I I U U I I P I U U I 3.3.",
"3.3.I I I I I I E R I E I I I I I I R I E E E E E E E T < @ + + + + + + + + 3 n U E E I R R E U E E U I U I I U I I I R I I 3.3.",
"3.3.I I E I I I I E Q E I I I I I R I R G U U E I E E E R 2 + + = + O + + $ o + + y A S E E Q E E E E E I P I R I I E U E E 3.3.",
"3.3.I I E U I U E U E R I E E I P I I I 7 E E I E I I E I I a - + + + O + + + + O @ @ & 1 3 Y U U E U U E I I R I I E I I E 3.3.",
"3.3.I I E I I I I U U E E I I I E I I I 6 E E I I E j I j I U I P r 3 * + O + + @ + @ + = = + < C Z U U I E I E U I I E I E 3.3.",
"3.3.I I P I E I R I I E Q I P I I E U I h E I I I I I I I I I I I E I P P S + O @ @ $ + X > @ = + @ 3 R E I E Q E I I I Q E 3.3.",
"3.3.E I I I I R E R U E E E I E I I I I I I I I I I I I I I I I I P I I I I I m = @ + + @ + + + + + + o S E E E I I E I E I 3.3.",
"3.3.E I R I E U U E I E E I E E E U I E I I I I I I I I I I I I I I I I R U U N < @ + + + +   X X + + X 3 E I I I I E E I I 3.3.",
"3.3.E E E E E E U U I P I I E E E E E I I I I I I I I I I I I I I I I I T y 3 + + + + + + + X + X X O X + E E I I I E E I I 3.3.",
"3.3.I I E E I E R I I P I E I E E E E I E I I I I I I I I I I S N S p > X + + + + + X o + + O + + X + X + E E E E E E E E E 3.3.",
"3.3.E U E I f E I I U I U E E I E E E I I I I P I I a r 3 3 1 & + + + + + + + X + O X + + X + + X + X X y E E E E E I R E Q 3.3.",
"3.3.U U Q G 7 E U R U E U E E E U R A a m i w & + + o + + O + O O + + > + + + X o + X + + + + @ + + O 3 I U U U U R I U I I 3.3.",
"3.3.E E E G 8 I U E E E E D e - < & @ + O X   + X + + + + + + + + O + = O + o X + + + X @ @ > X + 3 S I U j I I T I I I P E 3.3.",
"3.3.E E I R G I U E m x = + + + + + + + + O + + X X + + + + + + + + + + + + + X + o + 1 w z x A I I I I I I R U I g I R Q I 3.3.",
"3.3.E I I I E E Y @ + + + + + + X @ +   + + + X + X + + + + @ + + + + + + + + 1 A I I I E R E E I U R I T I I U I 5 I I E I 3.3.",
"3.3.E I E E E S & + @ + + + + + o + + + + + + + + @ + + + + + + % 3 u u m I U U I I I I E I E I I U U I U I U R I 5 I E I E 3.3.",
"3.3.R I E E I w + + + O + + + O + + + @ X + + + X + + + & 3 I P I I I I U R U E E I I I I E I I E E I I R I I I I G U E E E 3.3.",
"3.3.E U E E E * + + + + + + + + o o + + + + + + o + 3 A I U U I I I I I I R U E E I I I I I E E I E U E U I R I I I I E I E 3.3.",
"3.3.I I I I I m + + + + + + + + + + @ + + + + + + X Y U E I E E U U U T R U R E E E E E E E E I E E E R I U I U P R E E E E 3.3.",
"3.3.I I I I I P - + + + . X + + + + > @ @ + + + + + w I Q E E E E E I j I I E E E E E I I E E E Q E E E E I I E E E E R I E 3.3.",
"3.3.I E I I I I S 2 + O X + + + + + > + @ + + $ + + + > u m R I I E I I I I q E E E E I E E E E E E E I E I I E I E E U E U 3.3.",
"3.3.I I I E I Q E I p + + + > + + + > + + > + + X + + + + O % y P I I I I h 7 E I I I E E I Q E E E E I I I I U E Q U I R E 3.3.",
"3.3.I E I E I I I I P I x e + + + + + + @ @ + + + + X + O + X o & y S I R I 0 E I I E I I E E E E E I E I I U E E E E R I E 3.3.",
"3.3.E I I I I E I I I E I E I 2 + + + > $ + + + + + + + X + o + + & + 3 I U U P E I I I I E E E E R I E Q E E E E Q I E j U 3.3.",
"3.3.I U E I E R I I I E E E E E v = @ + + + + O X + > + + + + + # + + + + t Y I I I I E I E I I E E E I I E I R E I I I E I 3.3.",
"3.3.E I E I E I I I I E E E I E E u > + + + + + o + + + + @ + + + ; > $ + + & P I G I I I Q I q P I I E I I I P I I I I I I 3.3.",
"3.3.I I I E E I I I I E I E E E E w + + + o + + + + + + + + > + + + + & @ + + 2 I I I I I E I 8 q I U E I I I I I I P I I I 3.3.",
"3.3.E I E E E E I U I I A Z m 3 + X + O + + X X + + + + + + + + + + + > + + + ; m U R T U I R 9 d E E I I I E I E I I E I I 3.3.",
"3.3.E E E A v y 3 < - % O + + + + + +   X + + + + + > + + + > > + + + > + + + + 2 I E U U I I I I E E E I E I I I I E I I E 3.3.",
"3.3.t + + + + + + + @ + + & + + + + + X X   + + > > > + + @ > + @ + + + @ > + + + E U U I I R I I E E I I I I R E I E I I I 3.3.",
"3.3.+ + + + + + + + + + + + + + + @ @ + o + + + > + + + + > + + > > > + + = + + & R R U I I E U I I E I I I I I E I E I E I 3.3.",
"3.3.+ + + + + + + + + + + + + + + + X X o X + + > + + + o + > + + + + o X + + + 3 U I E E I I U I I E E I E Q E E E E E E I 3.3.",
"3.3.o + + + @ + + + + + + + + + X + X + X X + + + > @ + + + + + + + + o + +   + M I E E E I E E E I I I I I E E E E I U E E 3.3.",
"3.3.+ . + + + o +   X + + + + # + + + + X X + + + + + + + + + + X X X X + + + & I I I U R U E E I I I I I I I I I g I I I U 3.3.",
"3.3.+ + @ + + + + o + X X o X + o . + + + + + X + + + > + + + @ + + + + @ @ + n U I I I I E E E I I I E E I I E q 9 U R E I 3.3.",
"3.3.X +   + . o + O + + O + X + + + + + +   O X X + + + + + + + + + + + @ O y I E E I G E I I E E E I I R E E U 9 q E I I I 3.3.",
"3.3.+ + + + X + + + o + + + + + + + + + + + + X + + + + + + + + + + + + + w I I E E I 7 E I U I R I E E I E E E E F E E I E 3.3.",
"3.3.o + + + + + @ + + X + + > + + + + X + + + X . o + o . + + + X + @ + y I I I I E f 7 I I I U U I P I R E E Q E E E I I I 3.3.",
"3.3.+ # + + + + + + + + + + + > + + + + @ + + + o + . + + + + + & + < Z E U I I R E I h E E U R E U I U E U Q E E E I I I I 3.3.",
"3.3.> + + + + + + + + # > + + + > , + + + + + + X . o + + + + + & x E Q E P I I Q E E E E R E I I I I E E I I E E I I I I I 3.3.",
"3.3.3.# + # # + $ & , + $ + + + + $ + + # $ + # # + + + , + , x D E ! W E Q Q Q Q Q E ! ! ! Q Q E E I U U W U I Q W Q U I 3.3.3.",
"3.3.3.3.3.3.3.3.3.3.3.3.3.3.3.3.3.3.3.3.3.3.3.3.3.3.3.3.3.3.3.3.3.3.3.3.3.3.3.3.3.3.3.3.3.3.3.3.3.3.3.3.3.3.3.3.3.3.3.3.3.3.3.3.",
"3.3.3.3.3.3.3.3.3.3.3.3.3.3.3.3.3.3.3.3.3.3.3.3.3.3.3.3.3.3.3.3.3.3.3.3.3.3.3.3.3.3.3.3.3.3.3.3.3.3.3.3.3.3.3.3.3.3.3.3.3.3.3.3."
};
